<svg width="352" height="352" viewBox="0 0 352 352" fill="none" xmlns="http://www.w3.org/2000/svg">
<rect width="352" height="352" rx="176" fill="#FDFDFD"/>
<g clip-path="url(#clip0_89_9)">
<path d="M29.3797 91.5947C29.3797 87.6105 32.6095 84.3797 36.5936 84.3797H37.1135H37.6334H38.1533H38.6732H39.1932H39.7131H40.233H40.7529H41.2729H41.7928H42.3127H42.8327H43.3526H43.8726H44.3925H44.9124H45.4324H45.9524H46.4723H46.9923H47.5123H48.0322H48.5522H49.0722H49.5922H50.1122H50.6321H51.1521H51.6721H52.1921H52.7122H53.2322H53.7522H54.2722H54.7923H55.3123H55.8323H56.3524H56.8724H57.3925H57.9126H58.4326H58.9527H59.4728H59.9929H60.513H61.0331H61.5532H62.0733H62.5934H63.1136H63.6337H64.1538H64.674H65.1941H65.7143H66.2345H66.7547H67.2749H67.7951H68.3153H68.8355H69.3557H69.8759H70.3962H70.9164H71.4367H71.9569H72.4772H72.9975H73.5178H74.0381H74.5584H75.0787H75.599H76.1194H76.6397H77.1601H77.6805H78.2008H78.7212H79.2416H79.762H80.2824H80.8029H81.3233H81.8438H82.3642H82.8847H83.4052H83.9257H84.4462H84.9667H85.4873H86.0078H86.5283H87.0489H87.5695H88.0901H88.6107H89.1313H89.6519H90.1726H90.6932H91.2139H91.7346H92.2553H92.776H93.2967H93.8174H94.3382H94.8589H95.3797H95.9005H96.4213H96.9421H97.4629H97.9838H98.5046H99.0255H99.5464H100.067H100.588H101.109H101.63H102.151H102.672H103.193H103.714H104.235H104.756H105.277H105.798H106.319H106.84H107.361H107.883H108.404H108.925H109.446H109.967H110.488H111.01H111.531H112.052H112.574H113.095H113.616H114.137H114.659H115.18H115.702H116.223H116.744H117.266H117.787H118.309H118.83H119.352H119.873H120.395H120.916H121.438H121.96H122.481H123.003H123.525H124.046H124.568H125.09H125.611H126.133H126.655H127.177H127.699H128.221H128.742H129.264H129.786H130.308H130.83H131.352H131.874H132.396H132.918H133.44H133.962H134.484H135.006H135.529H136.051H136.573H137.095H137.617H138.14H138.662H139.184H139.707H140.229H140.751H141.274H141.796H142.319H142.841H143.363H143.886H144.409H144.931H145.454H145.976H146.499H147.022H147.544H148.067H148.59H149.112H149.635H150.158H150.681H151.204H151.727H152.249H152.772H153.295H153.818H154.341H154.864H155.387H155.911H156.434H156.957H157.48H158.003H158.526H159.05H159.573H160.096H160.619H161.143H161.666H162.19H162.713H163.237H163.76H164.284H164.807H165.331H165.854H166.378H166.902H167.425H167.949H168.473H168.996H169.52H170.044H170.568H171.092H171.616H172.14H172.664H173.188H173.712H174.236H174.76H175.284H175.808H176.332H176.857H177.381H177.905H178.429H178.954H179.478H180.003H180.527H181.051H181.576H182.1H182.625H183.15H183.674H184.199H184.724H185.248H185.773H186.298H186.823H187.348H187.872H188.397H188.922H189.447H189.972H190.497H191.022H191.548H192.073H192.598H193.123H193.648H194.174H194.699H195.224H195.75H196.275H196.801H197.326H197.852H198.377H198.903H199.428H199.954H200.48H201.005H201.531H202.057H202.583H203.109H203.635H204.161H204.687H205.213H205.739H206.265H206.791H207.317H207.843H208.37H208.896H209.422H209.949H210.475H211.001H211.528H212.054H212.581H213.107H213.634H214.161H214.687H215.214H215.741H216.268H216.795H217.321H217.848H218.375H218.902H219.429H219.956H220.484H221.011H221.538H222.065H222.592H223.12H223.647H224.175H224.702H225.229H225.757H226.285H226.812H227.34H227.867H228.395H228.923H229.451H229.979H230.507H231.034H231.562H232.09H232.618H233.147H233.675H234.203H234.731H235.259H235.788H236.316H236.844H237.373H237.901H238.43H238.958H239.487H240.016H240.544H241.073H241.602H242.131H242.66H243.189H243.718H244.247H244.776H245.305H245.834H246.363H246.892H247.422H247.951H248.48H249.01H249.539H250.069H250.598H251.128H251.657H252.187H252.717H253.247H253.776H254.306H254.836H255.366H255.896H256.426H256.956H257.486H258.017H258.547H259.077H259.607H260.138H260.668H261.199H261.729H262.26H262.79H263.321H263.852H264.383H264.913H265.444H265.975H266.506H267.037H267.568H268.099H268.631H269.162H269.693H270.224H270.756H271.287H271.819H272.35H272.882H273.413H273.945H274.477H275.008H275.54H276.072H276.604H277.136H277.668H278.2H278.732H279.264H279.796H280.329H280.861H281.393H281.926H282.458H282.991H283.523H284.056H284.589H285.121H285.654H286.187H286.72H287.253H287.786H288.319H288.852H289.385H289.918H290.452H290.985H291.518H292.052H292.585H293.119H293.652H294.186H294.72H295.253H295.787H296.321H296.855H297.389H297.923H298.457H298.991H299.526H300.06H300.594H301.128H301.663H302.197H302.732H303.266H303.801H304.336H304.871H305.405C309.39 84.3797 312.62 87.6095 312.62 91.5935V91.9138V92.234V92.5542V92.8744V93.1947V93.5149V93.8351V94.1554V94.4756V94.7959V95.1161V95.4364V95.7566V96.0769V96.3971V96.7174V97.0376V97.3579V97.6781V97.9984V98.3187V98.639V98.9592V99.2795V99.5998V99.9201V100.24V100.561V100.881V101.201V101.522V101.842V102.162V102.482V102.803V103.123V103.443V103.764V104.084V104.404V104.725V105.045V105.365V105.686V106.006V106.326V106.647V106.967V107.288V107.608V107.928V108.249V108.569V108.889V109.21V109.53V109.851V110.171V110.492V110.812V111.132V111.453V111.773V112.094V112.414V112.735V113.055V113.376V113.696V114.016V114.337V114.657V114.978V115.298V115.619V115.939V116.26V116.581V116.901V117.222V117.542V117.863V118.183V118.504V118.824V119.145V119.466V119.786V120.107V120.427V120.748V121.069V121.389V121.71V122.03V122.351V122.672V122.992V123.313V123.634V123.954V124.275V124.596V124.917V125.237V125.558V125.879V126.2V126.52V126.841V127.162V127.483V127.803V128.124V128.445V128.766V129.087V129.407V129.728V130.049V130.37V130.691V131.012V131.333V131.653V131.974V132.295V132.616V132.937V133.258V133.579V133.9V134.221V134.542V134.863V135.184V135.505V135.826V136.147V136.468V136.789V137.11V137.431V137.752V138.073V138.394V138.716V139.037V139.358V139.679V140V140.321V140.642V140.964V141.285V141.606V141.927V142.248V142.57V142.891V143.212V143.533V143.855V144.176V144.497V144.819V145.14V145.461V145.783V146.104V146.425V146.747V147.068V147.39V147.711V148.033V148.354V148.675V148.997V149.318V149.64V149.961V150.283V150.604V150.926V151.248V151.569V151.891V152.212V152.534V152.856V153.177V153.499V153.821V154.142V154.464V154.786V155.107V155.429V155.751V156.073V156.395V156.716V157.038V157.36V157.682V158.004V158.326V158.647V158.969V159.291V159.613V159.935V160.257V160.579V160.901V161.223V161.545V161.867V162.189V162.511V162.833V163.155V163.477V163.8V164.122V164.444V164.766V165.088V165.41V165.733V166.055V166.377V166.699V167.022V167.344V167.666V167.989V168.311V168.633V168.956V169.278V169.6V169.923V170.245V170.568V170.89V171.213V171.535V171.858V172.18V172.503V172.826V173.148V173.471V173.793V174.116V174.439V174.761V175.084V175.407V175.729V176.052V176.375V176.698V177.021V177.343V177.666V177.989V178.312V178.635V178.958V179.281V179.604V179.927V180.25V180.573V180.896V181.219V181.542V181.865V182.188V182.511V182.834V183.157V183.481V183.804V184.127V184.45V184.774V185.097V185.42V185.743V186.067V186.39V186.714V187.037V187.36V187.684V188.007V188.331V188.654V188.978V189.301V189.625V189.948V190.272V190.596V190.919V191.243V191.567V191.89V192.214V192.538V192.861V193.185V193.509V193.833V194.157V194.481V194.804V195.128V195.452V195.776V196.1V196.424V196.748V197.072V197.396V197.72V198.045V198.369V198.693V199.017V199.341V199.665V199.99V200.314V200.638V200.963V201.287V201.611V201.936V202.26V202.584V202.909V203.233V203.558V203.882V204.207V204.531V204.856V205.181V205.505V205.83V206.155V206.479V206.804V207.129V207.454V207.778V208.103V208.428V208.753V209.078V209.403V209.728V210.053V210.378V210.703V211.028V211.353V211.678V212.003V212.328V212.653V212.978V213.304V213.629V213.954V214.279V214.605V214.93V215.255V215.581V215.906V216.232V216.557V216.883V217.208V217.534V217.859V218.185V218.51V218.836V219.162V219.487V219.813V220.139V220.465V220.79V221.116V221.442V221.768V222.094V222.42V222.746V223.072V223.398V223.724V224.05V224.376V224.702V225.028V225.354V225.681V226.007V226.333V226.659V226.986V227.312V227.638V227.965V228.291V228.618V228.944V229.271V229.597V229.924V230.25V230.577V230.904V231.23V231.557V231.884V232.211V232.537V232.864V233.191V233.518V233.845V234.172V234.499V234.826V235.153V235.48V235.807V236.134V236.461V236.788V237.115V237.443V237.77V238.097V238.425V238.752V239.079V239.407V239.734V240.062V240.389V240.717V241.044V241.372V241.699V242.027V242.355V242.682V243.01V243.338V243.666V243.993V244.321V244.649V244.977V245.305V245.633V245.961V246.289V246.617V246.945V247.273V247.602V247.93V248.258V248.586V248.915V249.243V249.571V249.9V250.228V250.557V250.885V251.214V251.542V251.871V252.199V252.528V252.857V253.185V253.514V253.843V254.172V254.501V254.83V255.158V255.487V255.816V256.145V256.474V256.803V257.133C312.62 261.117 309.391 264.348 305.406 264.348H304.887H304.367H303.847H303.327H302.807H302.287H301.767H301.247H300.727H300.207H299.687H299.167H298.647H298.127H297.608H297.088H296.568H296.048H295.528H295.008H294.488H293.968H293.448H292.928H292.408H291.888H291.368H290.848H290.328H289.808H289.288H288.768H288.248H287.728H287.208H286.688H286.168H285.648H285.128H284.608H284.087H283.567H283.047H282.527H282.007H281.487H280.967H280.447H279.927H279.407H278.886H278.366H277.846H277.326H276.806H276.286H275.766H275.245H274.725H274.205H273.685H273.165H272.644H272.124H271.604H271.084H270.563H270.043H269.523H269.003H268.482H267.962H267.442H266.921H266.401H265.881H265.36H264.84H264.32H263.799H263.279H262.758H262.238H261.718H261.197H260.677H260.156H259.636H259.115H258.595H258.074H257.554H257.033H256.513H255.992H255.472H254.951H254.431H253.91H253.389H252.869H252.348H251.827H251.307H250.786H250.265H249.745H249.224H248.703H248.183H247.662H247.141H246.62H246.1H245.579H245.058H244.537H244.016H243.495H242.975H242.454H241.933H241.412H240.891H240.37H239.849H239.328H238.807H238.286H237.765H237.244H236.723H236.202H235.681H235.16H234.639H234.117H233.596H233.075H232.554H232.033H231.512H230.99H230.469H229.948H229.427H228.905H228.384H227.863H227.341H226.82H226.298H225.777H225.256H224.734H224.213H223.691H223.17H222.648H222.127H221.605H221.084H220.562H220.04H219.519H218.997H218.475H217.954H217.432H216.91H216.389H215.867H215.345H214.823H214.301H213.78H213.258H212.736H212.214H211.692H211.17H210.648H210.126H209.604H209.082H208.56H208.038H207.516H206.994H206.471H205.949H205.427H204.905H204.383H203.86H203.338H202.816H202.293H201.771H201.249H200.726H200.204H199.681H199.159H198.637H198.114H197.591H197.069H196.546H196.024H195.501H194.978H194.456H193.933H193.41H192.888H192.365H191.842H191.319H190.796H190.273H189.751H189.228H188.705H188.182H187.659H187.136H186.613H186.089H185.566H185.043H184.52H183.997H183.474H182.95H182.427H181.904H181.381H180.857H180.334H179.81H179.287H178.763H178.24H177.716H177.193H176.669H176.146H175.622H175.098H174.575H174.051H173.527H173.004H172.48H171.956H171.432H170.908H170.384H169.86H169.336H168.812H168.288H167.764H167.24H166.716H166.192H165.668H165.143H164.619H164.095H163.571H163.046H162.522H161.997H161.473H160.949H160.424H159.9H159.375H158.85H158.326H157.801H157.276H156.752H156.227H155.702H155.177H154.652H154.128H153.603H153.078H152.553H152.028H151.503H150.978H150.452H149.927H149.402H148.877H148.352H147.826H147.301H146.776H146.25H145.725H145.199H144.674H144.148H143.623H143.097H142.572H142.046H141.52H140.995H140.469H139.943H139.417H138.891H138.365H137.839H137.313H136.787H136.261H135.735H135.209H134.683H134.157H133.63H133.104H132.578H132.052H131.525H130.999H130.472H129.946H129.419H128.893H128.366H127.839H127.313H126.786H126.259H125.732H125.205H124.679H124.152H123.625H123.098H122.571H122.044H121.516H120.989H120.462H119.935H119.408H118.88H118.353H117.825H117.298H116.771H116.243H115.715H115.188H114.66H114.133H113.605H113.077H112.549H112.021H111.494H110.966H110.438H109.91H109.382H108.853H108.325H107.797H107.269H106.741H106.212H105.684H105.156H104.627H104.099H103.57H103.042H102.513H101.984H101.456H100.927H100.398H99.8692H99.3403H98.8114H98.2825H97.7534H97.2244H96.6953H96.1662H95.637H95.1077H94.5785H94.0492H93.5198H92.9904H92.4609H91.9314H91.4019H90.8723H90.3427H89.813H89.2832H88.7535H88.2237H87.6938H87.1639H86.6339H86.1039H85.5739H85.0438H84.5136H83.9834H83.4532H82.9229H82.3926H81.8622H81.3317H80.8013H80.2707H79.7402H79.2095H78.6789H78.1481H77.6174H77.0866H76.5557H76.0248H75.4938H74.9628H74.4318H73.9007H73.3695H72.8383H72.307H71.7757H71.2444H70.713H70.1815H69.65H69.1185H68.5868H68.0552H67.5235H66.9917H66.4599H65.9281H65.3962H64.8642H64.3322H63.8001H63.268H62.7359H62.2036H61.6714H61.139H60.6067H60.0743H59.5418H59.0093H58.4767H57.944H57.4114H56.8786H56.3458H55.813H55.2801H54.7472H54.2142H53.6811H53.148H52.6148H52.0816H51.5484H51.015H50.4817H49.9482H49.4148H48.8812H48.3476H47.814H47.2803H46.7465H46.2127H45.6789H45.1449H44.611H44.0769H43.5428H43.0087H42.4745H41.9403H41.406H40.8716H40.3372H39.8027H39.2682H38.7336H38.1989H37.6642H37.1295H36.5947C32.6105 264.348 29.3797 261.118 29.3797 257.134V256.814V256.493V256.173V255.853V255.533V255.212V254.892V254.572V254.252V253.931V253.611V253.291V252.971V252.65V252.33V252.01V251.69V251.369V251.049V250.729V250.409V250.088V249.768V249.448V249.128V248.807V248.487V248.167V247.846V247.526V247.206V246.885V246.565V246.245V245.925V245.604V245.284V244.964V244.643V244.323V244.003V243.682V243.362V243.042V242.721V242.401V242.08V241.76V241.44V241.119V240.799V240.479V240.158V239.838V239.517V239.197V238.877V238.556V238.236V237.915V237.595V237.274V236.954V236.634V236.313V235.993V235.672V235.352V235.031V234.711V234.39V234.07V233.749V233.429V233.108V232.788V232.467V232.147V231.826V231.506V231.185V230.865V230.544V230.223V229.903V229.582V229.262V228.941V228.621V228.3V227.979V227.659V227.338V227.017V226.697V226.376V226.055V225.735V225.414V225.093V224.773V224.452V224.131V223.811V223.49V223.169V222.849V222.528V222.207V221.886V221.565V221.245V220.924V220.603V220.282V219.962V219.641V219.32V218.999V218.678V218.357V218.036V217.716V217.395V217.074V216.753V216.432V216.111V215.79V215.469V215.148V214.827V214.506V214.185V213.864V213.543V213.222V212.901V212.58V212.259V211.938V211.617V211.296V210.975V210.654V210.333V210.012V209.691V209.37V209.048V208.727V208.406V208.085V207.764V207.443V207.121V206.8V206.479V206.158V205.836V205.515V205.194V204.873V204.551V204.23V203.909V203.587V203.266V202.945V202.623V202.302V201.98V201.659V201.338V201.016V200.695V200.373V200.052V199.73V199.409V199.087V198.766V198.444V198.123V197.801V197.48V197.158V196.836V196.515V196.193V195.872V195.55V195.228V194.907V194.585V194.263V193.942V193.62V193.298V192.976V192.655V192.333V192.011V191.689V191.367V191.045V190.724V190.402V190.08V189.758V189.436V189.114V188.792V188.47V188.148V187.826V187.504V187.182V186.86V186.538V186.216V185.894V185.572V185.25V184.928V184.606V184.283V183.961V183.639V183.317V182.995V182.672V182.35V182.028V181.706V181.383V181.061V180.739V180.416V180.094V179.772V179.449V179.127V178.804V178.482V178.159V177.837V177.515V177.192V176.869V176.547V176.224V175.902V175.579V175.257V174.934V174.611V174.289V173.966V173.643V173.321V172.998V172.675V172.352V172.029V171.707V171.384V171.061V170.738V170.415V170.092V169.769V169.447V169.124V168.801V168.478V168.155V167.832V167.508V167.185V166.862V166.539V166.216V165.893V165.57V165.247V164.923V164.6V164.277V163.954V163.63V163.307V162.984V162.661V162.337V162.014V161.69V161.367V161.044V160.72V160.397V160.073V159.75V159.426V159.103V158.779V158.455V158.132V157.808V157.484V157.161V156.837V156.513V156.19V155.866V155.542V155.218V154.894V154.571V154.247V153.923V153.599V153.275V152.951V152.627V152.303V151.979V151.655V151.331V151.007V150.683V150.359V150.034V149.71V149.386V149.062V148.738V148.413V148.089V147.765V147.44V147.116V146.792V146.467V146.143V145.818V145.494V145.169V144.845V144.52V144.196V143.871V143.547V143.222V142.897V142.573V142.248V141.923V141.599V141.274V140.949V140.624V140.299V139.974V139.65V139.325V139V138.675V138.35V138.025V137.7V137.375V137.05V136.724V136.399V136.074V135.749V135.424V135.098V134.773V134.448V134.123V133.797V133.472V133.147V132.821V132.496V132.17V131.845V131.519V131.194V130.868V130.543V130.217V129.891V129.566V129.24V128.914V128.588V128.263V127.937V127.611V127.285V126.959V126.633V126.307V125.981V125.655V125.329V125.003V124.677V124.351V124.025V123.699V123.373V123.047V122.72V122.394V122.068V121.742V121.415V121.089V120.762V120.436V120.11V119.783V119.457V119.13V118.803V118.477V118.15V117.824V117.497V117.17V116.843V116.517V116.19V115.863V115.536V115.209V114.882V114.556V114.229V113.902V113.575V113.248V112.92V112.593V112.266V111.939V111.612V111.285V110.957V110.63V110.303V109.975V109.648V109.321V108.993V108.666V108.338V108.011V107.683V107.356V107.028V106.7V106.373V106.045V105.717V105.389V105.062V104.734V104.406V104.078V103.75V103.422V103.094V102.766V102.438V102.11V101.782V101.454V101.126V100.797V100.469V100.141V99.8126V99.4843V99.1559V98.8275V98.4991V98.1707V97.8422V97.5136V97.1851V96.8565V96.5279V96.1992V95.8705V95.5418V95.2131V94.8843V94.5555V94.2266V93.8978V93.5688V93.2399V92.9109V92.5819V92.2529V91.9238V91.5947Z" fill="#FDFDFD" stroke="white" stroke-width="0.759358"/>
<path d="M99.4606 108.967C99.9811 108.958 100.502 108.949 101.038 108.94C109.789 108.917 116.553 112.36 122.895 118.259C128.655 124.453 131.349 132.118 131.081 140.517C130.182 148.965 126.648 155.808 122.231 162.889C121.524 164.039 120.818 165.19 120.113 166.341C118.141 169.547 116.154 172.742 114.162 175.936C112.034 179.352 109.916 182.775 107.798 186.197C107.407 186.827 107.017 187.457 106.615 188.105C106.249 188.696 105.883 189.287 105.506 189.895C105.186 190.412 104.866 190.928 104.536 191.46C103.49 193.165 102.462 194.881 101.433 196.596C112.319 196.833 123.206 197.07 134.423 197.314C134.423 203.704 134.423 210.094 134.423 216.677C111.703 216.677 88.9827 216.677 65.5742 216.677C67.7503 212.325 69.6135 208.673 72.3012 204.761C74.5524 201.447 76.6358 198.025 78.7522 194.624C79.2301 193.858 79.7079 193.092 80.2002 192.302C82.9696 187.858 85.729 183.409 88.4649 178.944C89.6872 176.956 90.9149 174.971 92.146 172.989C95.7751 167.143 99.4041 161.297 102.957 155.404C103.337 154.776 103.337 154.776 103.726 154.135C107.111 148.49 109.936 143.113 109.322 136.354C108.429 133.912 107.613 132.453 105.691 130.706C102.564 129.509 99.7132 129.333 96.4126 129.899C93.3972 131.426 91.2834 134.002 89.9581 137.071C89.7214 139.201 89.4847 141.331 89.2409 143.526C82.8509 143.526 76.4609 143.526 69.8772 143.526C69.8772 133.272 71.1973 125.379 78.3236 117.783C84.5166 111.97 91.0363 108.974 99.4606 108.967Z" fill="#022B7C"/>
<path d="M214.028 116.273C210.664 121.707 207.087 126.925 203.27 132.051C201.431 131.709 199.649 131.323 197.855 130.793C188.778 128.135 179.085 127.878 170.555 132.308C161.68 137.417 156.353 143.877 153.068 153.566C152.772 154.364 152.476 155.163 152.172 155.986C150.391 164.593 152.152 172.672 156.533 180.21C162.076 188.179 169.338 193.981 178.976 196.148C186.073 197.242 192.045 196.195 198.967 194.445C200.161 194.197 201.355 193.955 202.553 193.727C203.704 195.445 204.855 197.163 206.004 198.882C206.328 199.365 206.652 199.848 206.986 200.346C207.619 201.292 208.247 202.241 208.872 203.192C209.594 204.286 210.334 205.369 211.078 206.449C211.876 208.071 211.876 208.071 211.946 209.589C210.664 211.789 208.766 212.243 206.453 213.181C205.594 213.537 204.735 213.894 203.85 214.262C197.825 216.495 192.548 216.9 186.148 216.856C185.344 216.862 184.541 216.867 183.713 216.873C175.954 216.855 169.458 215.537 162.391 212.374C161.808 212.124 161.225 211.875 160.624 211.617C149.024 206.303 139.953 196.14 135.004 184.494C132.302 177.137 131.204 170.319 131.284 162.486C131.276 161.667 131.267 160.848 131.259 160.005C131.303 146.961 136.937 134.814 145.552 125.114C146.614 124.162 146.614 124.162 148.048 124.162C148.048 123.688 148.048 123.215 148.048 122.727C166.927 106.468 192.48 103.291 214.028 116.273Z" fill="#032C7D"/>
<path d="M257.062 110.536C257.618 110.72 258.173 110.904 258.746 111.093C268.695 114.676 276.575 121.691 281.379 131.059C282.163 132.768 282.163 132.768 282.88 134.92C281.752 136.613 280.62 138.146 279.339 139.716C278.994 140.151 278.649 140.586 278.293 141.034C277.438 142.109 276.574 143.177 275.709 144.243C274.447 142.35 273.782 140.882 273.019 138.774C270.116 131.468 265.938 126.035 258.765 122.523C251.081 119.333 242.978 118.48 235.009 121.293C227.517 124.551 222.644 129.039 219.052 136.354C218.809 136.784 218.566 137.214 218.315 137.657C215.516 143.422 216.101 152.127 217.707 158.228C220.236 165.23 225.02 170.456 231.244 174.364C233.242 173.519 234.511 172.583 236.175 171.137C239.872 168.027 243.844 167.462 248.585 167.54C253.008 168.348 255.86 171.635 258.81 174.812C261.452 178.828 262.05 182.52 261.365 187.273C259.545 192.218 256.635 195.31 252.235 198.101C248.116 199.738 242.101 199.673 237.996 197.986C234.643 195.623 232.269 192.402 230.527 188.708C230.458 188.223 230.39 187.739 230.32 187.24C229.521 185.047 227.947 184.63 225.91 183.598C216.564 178.354 210.275 170.047 206.86 159.931C204.401 149.065 205.593 137.579 211.253 127.972C217.052 119.496 225.306 112.114 235.547 109.819C242.641 108.618 250.183 108.204 257.062 110.536Z" fill="#062E7E"/>
<path d="M251.914 127.795C256.007 130.04 258.845 132.721 260.647 137.07C260.729 137.688 260.811 138.306 260.896 138.942C261.186 140.756 261.186 140.756 262.725 141.539C263.311 141.765 263.897 141.992 264.501 142.225C273.298 146.284 279.241 153.828 282.966 162.639C283.492 164.153 283.945 165.632 284.313 167.192C284.442 167.711 284.57 168.231 284.703 168.766C286.411 179.248 285.144 189.573 279.427 198.658C278.686 199.659 277.923 200.645 277.141 201.616C276.722 202.159 276.302 202.703 275.87 203.263C269.981 210.426 261.842 214.955 252.758 216.676C250.527 216.883 248.318 216.916 246.079 216.901C245.479 216.897 244.879 216.893 244.261 216.888C233.829 216.684 224.646 212.741 217.084 205.507C214.503 202.734 212.401 199.833 210.444 196.596C210.102 196.133 209.76 195.671 209.408 195.195C208.466 193.627 208.31 192.681 208.293 190.858C210.364 187.444 212.807 184.505 215.465 181.535C217.11 183.181 217.253 184.02 217.795 186.242C219.943 193.632 224.857 199.263 231.371 203.302C238.204 206.886 248.222 207.328 255.626 205.157C264.358 201.503 269.955 195.119 273.556 186.555C275.766 178.92 275.012 169.591 271.222 162.684C268.251 157.836 264.158 153.007 258.495 151.414C257.977 151.961 257.46 152.508 256.926 153.072C252.708 157.103 249.043 158.145 243.328 158.062C239.544 157.704 236.912 156.43 234.288 153.683C231.167 149.758 229.395 145.945 229.534 140.813C230.231 136.772 232.268 133.176 235.142 130.302C235.749 129.932 236.355 129.563 236.98 129.182C237.586 128.767 238.193 128.353 238.818 127.926C243.175 126.342 247.536 126.142 251.914 127.795Z" fill="#F69228"/>
<path d="M196.817 147.828C197.172 148.538 197.172 148.538 197.534 149.262C196.698 149.283 196.698 149.283 195.845 149.305C193.33 149.373 190.815 149.452 188.3 149.531C186.984 149.564 186.984 149.564 185.642 149.598C184.805 149.626 183.969 149.654 183.107 149.682C182.333 149.705 181.559 149.727 180.762 149.751C178.775 149.798 178.775 149.798 177.453 151.414C178.141 151.424 178.829 151.435 179.537 151.445C182.085 151.487 184.632 151.542 187.18 151.602C188.283 151.626 189.386 151.646 190.489 151.662C192.074 151.686 193.658 151.724 195.242 151.764C195.737 151.768 196.232 151.773 196.741 151.778C198.133 151.821 198.133 151.821 200.403 152.131C201.837 154.282 201.837 154.282 201.837 157.151C200.91 157.165 199.984 157.179 199.029 157.194C195.599 157.249 192.17 157.312 188.74 157.379C187.254 157.406 185.768 157.431 184.283 157.454C182.15 157.486 180.017 157.528 177.885 157.571C176.884 157.584 176.884 157.584 175.863 157.596C175.246 157.611 174.628 157.625 173.992 157.64C173.448 157.649 172.903 157.659 172.342 157.668C170.824 157.758 170.824 157.758 169.564 159.303C186.249 159.658 186.249 159.658 203.271 160.02C203.271 166.423 202.272 170.016 198.879 175.304C193.626 180.215 188.598 181.399 181.459 181.182C177.89 180.676 175.284 179.395 172.433 177.232C172.433 176.759 172.433 176.285 172.433 175.798C173.236 175.776 173.236 175.776 174.056 175.754C176.474 175.686 178.891 175.608 181.308 175.529C182.151 175.506 182.994 175.484 183.863 175.461C184.667 175.434 185.472 175.406 186.3 175.377C187.044 175.355 187.788 175.332 188.554 175.309C190.483 175.253 190.483 175.253 191.797 173.646C191.134 173.643 190.472 173.64 189.79 173.637C187.331 173.618 184.874 173.583 182.416 173.537C181.353 173.52 180.289 173.51 179.225 173.506C177.695 173.499 176.167 173.47 174.638 173.436C173.718 173.425 172.798 173.413 171.849 173.402C169.564 172.929 169.564 172.929 168.172 171.194C167.413 169.343 167.413 169.343 167.413 167.909C168.34 167.894 169.266 167.88 170.221 167.866C173.651 167.811 177.08 167.747 180.51 167.681C181.996 167.653 183.481 167.629 184.967 167.606C187.1 167.573 189.233 167.532 191.365 167.488C192.366 167.476 192.366 167.476 193.387 167.463C194.004 167.449 194.622 167.435 195.258 167.42C196.075 167.406 196.075 167.406 196.908 167.391C198.426 167.302 198.426 167.302 199.686 165.757C183.001 165.402 183.001 165.402 165.979 165.04C165.979 158.162 166.884 153.88 171.716 148.904C178.663 142.282 189.123 142.604 196.817 147.828Z" fill="#092E7E"/>
<path d="M260.645 234.606C261.592 234.606 262.539 234.606 263.514 234.606C263.869 236.736 263.869 236.736 264.231 238.909C264.704 238.435 265.178 237.962 265.665 237.474C268.572 237.227 269.644 237.258 272.12 238.909C272.593 238.435 273.067 237.962 273.554 237.474C275.613 237.211 276.715 237.205 278.485 238.326C279.292 239.626 279.292 239.626 279.068 241.419C278.905 242.011 278.742 242.602 278.575 243.212C278.575 243.922 278.575 244.632 278.575 245.363C275.945 245.363 273.315 245.363 270.686 245.363C270.21 245.372 269.735 245.38 269.246 245.389C267.813 245.407 266.381 245.386 264.948 245.363C264.593 245.008 264.593 245.008 264.231 244.646C263.994 245.119 263.758 245.593 263.514 246.08C262.567 246.08 261.621 246.08 260.645 246.08C260.409 244.424 260.172 242.767 259.928 241.06C258.407 242.936 256.965 244.787 255.625 246.798C254.442 244.431 253.258 242.064 252.039 239.626C250.856 239.863 249.672 240.099 248.453 240.343C248.453 242.236 248.453 244.13 248.453 246.08C247.758 245.947 247.063 245.814 246.347 245.677C245.622 245.574 244.897 245.47 244.15 245.363C243.914 245.6 243.677 245.837 243.433 246.08C241.445 246.29 240.267 246.341 238.547 245.274C237.3 243.304 237.411 241.908 237.696 239.626C238.547 238.281 238.547 238.281 239.847 237.474C241.685 237.25 241.685 237.25 243.433 237.474C243.906 237.948 244.38 238.421 244.867 238.909C245.104 238.435 245.341 237.962 245.585 237.474C248.425 237.474 251.265 237.474 254.191 237.474C254.664 238.421 255.137 239.368 255.625 240.343C255.921 239.885 256.217 239.426 256.521 238.954C257.904 237.324 258.576 237.043 260.645 236.757C260.645 236.047 260.645 235.337 260.645 234.606Z" fill="#FACE9E"/>
<path d="M86.3717 233.172C86.8451 233.172 87.3184 233.172 87.8061 233.172C87.8061 234.592 87.8061 236.012 87.8061 237.475C88.3682 237.564 88.9302 237.652 89.5094 237.744C91.3919 238.192 91.3919 238.192 92.8263 239.626C93.063 238.916 93.2996 238.206 93.5435 237.475C94.9477 237.436 96.3523 237.408 97.7568 237.385C98.93 237.36 98.93 237.36 100.127 237.335C102.15 237.475 102.15 237.475 103.584 238.909C103.724 240.461 103.724 240.461 103.674 242.226C103.661 242.812 103.648 243.398 103.634 244.002C103.618 244.452 103.601 244.901 103.584 245.364C102.874 245.364 102.164 245.364 101.432 245.364C101.432 243.707 101.432 242.05 101.432 240.344C100.722 240.344 100.012 240.344 99.2808 240.344C99.2808 242.237 99.2808 244.13 99.2808 246.081C97.3875 246.081 95.4942 246.081 93.5435 246.081C93.3068 245.371 93.0701 244.661 92.8263 243.929C92.5291 244.279 92.2318 244.628 91.9256 244.987C89.8271 246.822 87.2306 246.39 84.5788 246.35C83.7482 246.362 83.7482 246.362 82.9007 246.375C78.8341 246.354 78.8341 246.354 77.2488 245.122C75.8336 243.283 76.0507 241.871 76.3313 239.626C77.2278 238.282 77.2278 238.282 78.4829 237.475C79.4295 237.475 80.3762 237.475 81.3515 237.475C81.3515 238.422 81.3515 239.368 81.3515 240.344C80.4049 240.344 79.4582 240.344 78.4829 240.344C78.7195 241.054 78.9562 241.764 79.2 242.495C80.6452 243.021 80.6452 243.021 82.0687 243.212C82.0687 241.319 82.0687 239.426 82.0687 237.475C82.7787 237.475 83.4887 237.475 84.2202 237.475C84.4569 236.528 84.6936 235.582 84.9374 234.606C85.4107 234.606 85.8841 234.606 86.3717 234.606C86.3717 234.133 86.3717 233.66 86.3717 233.172Z" fill="#47609D"/>
<path d="M127.612 232.275C129.405 232.454 129.405 232.454 130.839 233.888C130.839 234.598 130.839 235.308 130.839 236.04C128.709 235.685 128.709 235.685 126.536 235.323C127.578 238.069 128.995 238.995 131.556 240.343C132.03 239.396 132.503 238.45 132.991 237.474C135.052 237.385 135.052 237.385 137.294 237.474C137.767 237.947 138.24 238.421 138.728 238.908C139.438 237.488 140.148 236.068 140.879 234.605C141.826 234.605 142.773 234.605 143.748 234.605C143.748 235.315 143.748 236.025 143.748 236.757C143.275 236.757 142.802 236.757 142.314 236.757C142.314 237.23 142.314 237.704 142.314 238.191C142.787 238.191 143.26 238.191 143.748 238.191C143.748 238.665 143.748 239.138 143.748 239.626C143.275 239.626 142.802 239.626 142.314 239.626C142.314 241.756 142.314 243.886 142.314 246.08C141.604 246.08 140.894 246.08 140.162 246.08C139.926 245.134 139.689 244.187 139.445 243.212C139.179 243.567 138.913 243.922 138.638 244.287C137.294 245.363 137.294 245.363 135.187 245.632C132.811 245.341 131.855 244.811 130.122 243.212C129.885 243.922 129.649 244.632 129.405 245.363C126.984 245.453 126.984 245.453 124.385 245.363C123.911 244.89 123.438 244.416 122.95 243.929C122.95 242.982 122.95 242.035 122.95 241.06C123.66 241.06 124.37 241.06 125.102 241.06C125.338 241.533 125.575 242.007 125.819 242.494C126.529 242.731 127.239 242.968 127.97 243.212C126.545 240.66 126.545 240.66 124.564 238.55C123.667 237.474 123.667 237.474 123.802 235.636C124.579 233.304 125.117 232.524 127.612 232.275Z" fill="#163683"/>
<path d="M164.544 233.171C165.254 233.645 165.964 234.118 166.696 234.606C166.459 235.316 166.222 236.026 165.978 236.757C165.521 236.697 165.063 236.637 164.592 236.575C163.999 236.502 163.406 236.429 162.796 236.354C162.205 236.279 161.614 236.204 161.006 236.127C160.272 236.084 160.272 236.084 159.524 236.04C158.517 236.884 158.517 236.884 158.717 239.267C158.517 241.65 158.517 241.65 159.524 242.495C161.938 242.6 163.672 242.546 165.978 241.778C166.407 241.053 166.836 240.328 167.278 239.581C168.847 237.474 168.847 237.474 171.088 237.116C173.15 237.474 173.15 237.474 174.584 238.909C174.821 238.435 175.058 237.962 175.302 237.474C176.248 237.474 177.195 237.474 178.17 237.474C178.17 240.314 178.17 243.154 178.17 246.081C177.224 246.081 176.277 246.081 175.302 246.081C175.065 245.371 174.828 244.661 174.584 243.929C174.111 244.402 173.638 244.876 173.15 245.363C170.244 245.611 169.172 245.58 166.696 243.929C166.207 244.299 165.719 244.669 165.216 245.05C162.445 246.406 161.029 246.219 158.089 245.363C155.833 243.396 155.293 242.226 154.817 239.267C155.221 236.757 155.221 236.757 156.655 234.651C159.596 232.629 161.026 232.774 164.544 233.171Z" fill="#0D307F"/>
<path d="M248.454 137.07C250.291 138.549 250.291 138.549 251.322 140.656C251.322 143.366 251.203 144.964 249.44 147.066C247.011 148.152 245.345 148.203 242.716 147.828C240.923 146.348 240.923 146.348 239.848 144.242C239.891 141.755 240.128 140.019 241.327 137.832C243.634 136.567 245.939 136.54 248.454 137.07Z" fill="#FEF9F4"/>
<path d="M245.988 177.904C248.662 178.731 249.826 179.166 251.322 181.535C251.278 184.005 251.035 185.769 249.842 187.945C247.54 189.207 245.226 189.247 242.715 188.707C240.757 186.993 240.012 185.857 239.443 183.328C240.271 179.647 242.266 177.97 245.988 177.904Z" fill="#F5F6F9"/>
<path d="M275.302 237.25C277.139 237.475 277.139 237.475 278.484 238.326C279.291 239.626 279.291 239.626 279.067 241.419C278.904 242.011 278.741 242.602 278.574 243.212C278.574 243.922 278.574 244.632 278.574 245.363C277.671 245.378 276.769 245.393 275.84 245.408C275.332 245.417 274.824 245.425 274.302 245.434C272.006 245.324 270.875 244.837 269.251 243.212C268.304 243.212 267.357 243.212 266.382 243.212C266.619 242.029 266.855 240.845 267.099 239.626C267.898 239.537 268.697 239.449 269.519 239.357C272.189 238.897 272.817 237.569 275.302 237.25Z" fill="#F7A853"/>
<path d="M140.879 234.606C141.826 234.606 142.772 234.606 143.748 234.606C143.748 235.316 143.748 236.026 143.748 236.757C143.274 236.757 142.801 236.757 142.313 236.757C142.313 237.231 142.313 237.704 142.313 238.192C142.787 238.192 143.26 238.192 143.748 238.192C143.748 238.665 143.748 239.138 143.748 239.626C143.274 239.626 142.801 239.626 142.313 239.626C142.313 241.756 142.313 243.886 142.313 246.08C141.603 246.08 140.893 246.08 140.162 246.08C139.925 245.134 139.688 244.187 139.445 243.212C139.178 243.567 138.912 243.922 138.638 244.288C136.725 245.817 135.372 245.617 132.99 245.363C132.517 244.89 132.043 244.417 131.556 243.929C131.825 242.046 131.825 242.046 132.273 240.343C132.983 241.408 132.983 241.408 133.707 242.495C134.654 242.495 135.601 242.495 136.576 242.495C136.576 241.548 136.576 240.601 136.576 239.626C135.866 239.626 135.156 239.626 134.424 239.626C134.424 239.153 134.424 238.679 134.424 238.192C136.098 238.192 137.771 238.192 139.445 238.192C139.918 237.008 140.391 235.825 140.879 234.606Z" fill="#1F3D88"/>
<path d="M73.462 233.172C74.8964 234.606 74.8964 234.606 74.8964 236.757C74.2224 236.655 74.2224 236.655 73.5349 236.55C72.9487 236.471 72.3626 236.391 71.7587 236.309C71.1763 236.226 70.5939 236.143 69.9938 236.057C69.4817 236.052 68.9695 236.046 68.4418 236.04C66.8288 237.351 66.8288 237.351 66.8282 239.268C66.8288 241.185 66.8288 241.185 68.4418 242.495C70.5634 242.614 70.5634 242.614 72.7448 242.495C73.4548 242.495 74.1648 242.495 74.8964 242.495C74.8964 243.205 74.8964 243.915 74.8964 244.646C72.4021 245.893 69.7289 245.779 67.0075 245.364C65.053 243.838 64.3475 242.791 63.8474 240.363C63.6505 237.73 63.9225 236.311 65.5731 234.247C68.4842 232.792 70.2278 232.853 73.462 233.172Z" fill="#163684"/>
<path d="M211.161 238.192C213.539 238.589 215.572 239.03 217.616 240.344C217.852 241.054 218.089 241.764 218.333 242.495C219.28 242.495 220.226 242.495 221.202 242.495C221.202 241.549 221.202 240.602 221.202 239.627C220.255 239.39 219.308 239.153 218.333 238.909C219.05 238.192 219.05 238.192 221.605 238.147C222.418 238.162 223.232 238.177 224.07 238.192C224.329 242.767 224.329 242.767 223.263 244.602C221.309 245.709 219.818 245.598 217.616 245.364C217.142 244.891 216.669 244.417 216.181 243.93C215.945 244.64 215.708 245.35 215.464 246.081C214.517 246.081 213.571 246.081 212.595 246.081C212.595 244.188 212.595 242.295 212.595 240.344C212.122 240.344 211.649 240.344 211.161 240.344C211.161 239.634 211.161 238.924 211.161 238.192Z" fill="#0D3080"/>
<path d="M234.201 233.082C234.881 233.112 235.562 233.141 236.263 233.172C236.263 234.118 236.263 235.065 236.263 236.04C235.079 235.804 233.896 235.567 232.677 235.323C233.676 237.738 234.813 238.899 236.98 240.343C236.743 242 236.506 243.657 236.263 245.364C231.623 246.326 231.623 246.326 229.853 245.184C229.091 243.929 229.091 243.929 229.091 241.778C230.037 241.541 230.984 241.304 231.96 241.061C232.196 241.771 232.433 242.481 232.677 243.212C233.15 243.212 233.623 243.212 234.111 243.212C233.393 241.611 232.837 240.485 231.511 239.312C230.525 238.192 230.525 238.192 230.301 236.354C230.658 233.574 231.456 233.192 234.201 233.082Z" fill="#F69731"/>
<path d="M108.201 237.25C110.039 237.475 110.039 237.475 111.339 238.237C112.668 240.404 112.461 242.172 112.191 244.646C110.039 246.081 110.039 246.081 107.843 245.946C105.736 245.363 105.736 245.363 104.302 243.212C104.752 237.693 104.752 237.693 108.201 237.25Z" fill="#153683"/>
<path d="M164.547 233.172C165.257 233.645 165.967 234.118 166.698 234.606C166.461 235.316 166.225 236.026 165.981 236.758C165.523 236.697 165.066 236.637 164.594 236.575C164.002 236.502 163.409 236.429 162.798 236.354C162.208 236.279 161.617 236.204 161.008 236.127C160.275 236.084 160.275 236.084 159.526 236.04C158.536 236.875 158.536 236.875 158.63 239.178C158.563 241.726 158.563 241.726 159.885 243.167C160.24 243.419 160.595 243.67 160.961 243.929C160.724 244.403 160.487 244.876 160.244 245.364C158.392 245.108 157.504 244.766 156.12 243.481C154.841 241.052 154.843 239.465 155.223 236.758C157.906 232.818 160.109 232.671 164.547 233.172Z" fill="#173784"/>
<path d="M205.425 234.606C206.135 234.606 206.845 234.606 207.576 234.606C207.576 235.552 207.576 236.499 207.576 237.474C208.523 237.474 209.47 237.474 210.445 237.474C210.445 240.314 210.445 243.154 210.445 246.08C208.788 246.08 207.132 246.08 205.425 246.08C205.425 242.294 205.425 238.507 205.425 234.606Z" fill="#798BB7"/>
<path d="M81.3537 237.475C81.3537 238.422 81.3537 239.368 81.3537 240.344C80.407 240.344 79.4604 240.344 78.485 240.344C78.7217 241.054 78.9583 241.764 79.2022 242.495C80.6473 243.021 80.6473 243.021 82.0709 243.212C82.0709 241.319 82.0709 239.426 82.0709 237.475C82.7809 237.475 83.4909 237.475 84.2224 237.475C84.2224 240.078 84.2224 242.682 84.2224 245.364C79.3198 245.504 79.3198 245.504 77.7678 245.364C76.3335 243.929 76.3335 243.929 76.1094 241.823C76.3335 239.626 76.3335 239.626 77.23 238.282C78.485 237.475 78.485 237.475 81.3537 237.475Z" fill="#2D4A8F"/>
<path d="M243.433 237.474C244.733 238.774 244.733 238.774 245.585 240.343C245.585 241.053 245.585 241.763 245.585 242.495C243.928 242.495 242.271 242.495 240.564 242.495C240.564 242.021 240.564 241.548 240.564 241.06C241.274 241.06 241.984 241.06 242.716 241.06C242.716 240.587 242.716 240.114 242.716 239.626C242.006 239.863 241.296 240.099 240.564 240.343C240.039 241.788 240.039 241.788 239.847 243.212C241.267 243.212 242.687 243.212 244.15 243.212C244.15 243.922 244.15 244.632 244.15 245.363C243.433 246.081 243.433 246.081 241.73 246.26C239.847 246.081 239.847 246.081 238.547 245.274C237.3 243.304 237.411 241.908 237.696 239.626C239.188 237.269 240.748 237.005 243.433 237.474Z" fill="#F69731"/>
<path d="M188.93 237.475C189.877 237.475 190.824 237.475 191.799 237.475C191.799 239.368 191.799 241.262 191.799 243.212C192.509 243.212 193.219 243.212 193.95 243.212C193.95 241.319 193.95 239.426 193.95 237.475C194.66 237.475 195.37 237.475 196.102 237.475C196.16 238.505 196.202 239.536 196.236 240.568C196.261 241.142 196.286 241.716 196.312 242.307C196.102 243.929 196.102 243.929 195.133 245.221C193.95 246.081 193.95 246.081 192.113 245.991C190.365 245.364 190.365 245.364 188.93 243.212C188.745 241.28 188.866 239.422 188.93 237.475Z" fill="#3C5898"/>
<path d="M267.818 237.25C268.528 237.324 269.238 237.398 269.969 237.475C270.443 238.185 270.916 238.895 271.404 239.626C269.915 240.023 268.647 240.343 267.101 240.343C266.864 241.29 266.627 242.237 266.383 243.212C267.567 242.975 268.75 242.739 269.969 242.495C270.206 243.441 270.443 244.388 270.686 245.363C266.274 245.434 266.274 245.434 264.949 245.363C263.59 244.005 264.103 242.085 264.067 240.279C264.368 237.777 265.461 237.496 267.818 237.25Z" fill="#F69B39"/>
<path d="M145.897 235.323C146.607 235.323 147.317 235.323 148.049 235.323C148.049 235.796 148.049 236.27 148.049 236.757C148.522 236.757 148.996 236.757 149.483 236.757C149.483 237.467 149.483 238.177 149.483 238.909C149.01 238.909 148.537 238.909 148.049 238.909C148.049 240.329 148.049 241.749 148.049 243.212C148.522 243.212 148.996 243.212 149.483 243.212C149.483 243.922 149.483 244.632 149.483 245.363C145.987 244.736 145.987 244.736 145.18 243.929C145.11 242.75 145.087 241.569 145.091 240.388C145.089 239.746 145.087 239.103 145.085 238.441C145.18 236.757 145.18 236.757 145.897 235.323Z" fill="#29478E"/>
<path d="M140.878 234.606C141.825 234.606 142.771 234.606 143.747 234.606C143.747 235.316 143.747 236.026 143.747 236.757C143.273 236.757 142.8 236.757 142.312 236.757C142.312 237.231 142.312 237.704 142.312 238.192C142.786 238.192 143.259 238.192 143.747 238.192C143.747 238.665 143.747 239.138 143.747 239.626C143.273 239.626 142.8 239.626 142.312 239.626C142.312 241.756 142.312 243.886 142.312 246.08C141.602 246.08 140.892 246.08 140.161 246.08C140 244.842 139.854 243.601 139.713 242.36C139.629 241.67 139.546 240.979 139.46 240.267C139.442 238.019 139.914 236.617 140.878 234.606Z" fill="#22418A"/>
<path d="M281.441 237.475C282.643 237.68 283.839 237.918 285.027 238.192C285.027 238.665 285.027 239.139 285.027 239.626C284.554 239.626 284.08 239.626 283.593 239.626C284.303 240.691 284.303 240.691 285.027 241.778C284.758 243.705 284.758 243.705 284.31 245.364C283.363 245.6 282.417 245.837 281.441 246.081C280.968 245.134 280.495 244.188 280.007 243.212C280.954 242.976 281.9 242.739 282.876 242.495C282.166 242.258 281.456 242.022 280.724 241.778C280.693 240.583 280.695 239.387 280.724 238.192C280.961 237.955 281.197 237.719 281.441 237.475Z" fill="#F69832"/>
<path d="M252.04 238.192C253.43 238.461 253.43 238.461 254.909 238.909C255.145 239.382 255.382 239.856 255.626 240.343C256.099 239.633 256.573 238.923 257.06 238.192C258.007 238.429 258.954 238.665 259.929 238.909C258.746 241.512 257.562 244.116 256.343 246.798C252.04 241.061 252.04 241.061 252.04 238.192Z" fill="#F69833"/>
<path d="M114.343 235.323C114.816 235.323 115.29 235.323 115.777 235.323C115.777 235.796 115.777 236.27 115.777 236.757C116.251 236.757 116.724 236.757 117.212 236.757C117.212 237.467 117.212 238.177 117.212 238.909C116.738 238.909 116.265 238.909 115.777 238.909C116.251 241.276 116.724 243.642 117.212 246.081C114.343 245.363 114.343 245.363 113.626 244.646C113.42 243.352 113.263 242.05 113.133 240.747C113.056 240.038 112.979 239.328 112.9 238.598C112.909 236.757 112.909 236.757 114.343 235.323Z" fill="#0A2D7E"/>
<path d="M201.121 235.323C201.595 235.323 202.068 235.323 202.556 235.323C202.556 235.796 202.556 236.27 202.556 236.757C203.029 236.757 203.502 236.757 203.99 236.757C203.99 237.467 203.99 238.177 203.99 238.909C203.517 238.909 203.043 238.909 202.556 238.909C202.801 241.039 202.801 241.039 203.273 243.212C203.746 243.449 204.22 243.685 204.707 243.929C204.707 244.402 204.707 244.876 204.707 245.363C203.512 245.394 202.316 245.393 201.121 245.363C199.882 244.124 200.08 242.437 199.911 240.747C199.834 240.038 199.758 239.328 199.679 238.598C199.687 236.757 199.687 236.757 201.121 235.323Z" fill="#113381"/>
<path d="M86.3723 233.172C86.8456 233.172 87.319 233.172 87.8066 233.172C87.8066 234.592 87.8066 236.012 87.8066 237.475C88.7533 237.712 89.7 237.948 90.6753 238.192C89.6547 238.347 89.6547 238.347 88.6135 238.506C86.2801 239.361 86.2801 239.361 85.7672 241.159C85.4198 242.786 85.1732 244.434 84.9379 246.081C82.8079 246.081 80.6779 246.081 78.4834 246.081C78.4834 245.844 78.4834 245.608 78.4834 245.364C80.3767 245.364 82.2701 245.364 84.2208 245.364C84.2125 244.888 84.2041 244.412 84.1956 243.921C84.1313 237.631 84.1313 237.631 84.9379 234.606C85.4113 234.606 85.8846 234.606 86.3723 234.606C86.3723 234.133 86.3723 233.66 86.3723 233.172Z" fill="#8694BD"/>
<path d="M184.625 237.475C185.827 237.68 187.023 237.918 188.211 238.192C188.078 238.591 187.945 238.991 187.808 239.402C187.441 241.343 187.798 242.734 188.211 244.647C187.494 245.364 187.494 245.364 185.656 245.409C185.079 245.394 184.503 245.379 183.908 245.364C183.908 244.654 183.908 243.944 183.908 243.212C184.381 242.976 184.855 242.739 185.343 242.495C184.869 242.258 184.396 242.022 183.908 241.778C183.878 240.583 183.879 239.387 183.908 238.192C184.145 237.955 184.381 237.719 184.625 237.475Z" fill="#1D3B86"/>
<path d="M175.304 237.475C176.251 237.475 177.197 237.475 178.173 237.475C178.173 240.315 178.173 243.155 178.173 246.081C177.226 246.081 176.279 246.081 175.304 246.081C175.164 245.051 175.031 244.02 174.901 242.988C174.826 242.414 174.751 241.84 174.674 241.248C174.587 239.626 174.587 239.626 175.304 237.475Z" fill="#4B629E"/>
<path d="M211.161 238.192C214.568 238.73 214.568 238.73 216.181 240.343C216.158 242.3 215.777 244.142 215.464 246.081C214.517 246.081 213.571 246.081 212.595 246.081C212.595 244.187 212.595 242.294 212.595 240.343C212.122 240.343 211.649 240.343 211.161 240.343C211.161 239.633 211.161 238.923 211.161 238.192Z" fill="#405998"/>
<path d="M132.989 237.475C134.409 237.475 135.829 237.475 137.292 237.475C136.345 237.712 135.399 237.948 134.423 238.192C134.423 238.665 134.423 239.139 134.423 239.626C135.133 239.626 135.843 239.626 136.575 239.626C136.811 240.573 137.048 241.52 137.292 242.495C136.109 242.732 134.925 242.968 133.706 243.212C133.233 242.502 132.759 241.792 132.272 241.061C132.035 241.771 131.798 242.481 131.554 243.212C131.081 243.212 130.608 243.212 130.12 243.212C130.12 242.266 130.12 241.319 130.12 240.344C130.593 240.344 131.067 240.344 131.554 240.344C132.028 239.397 132.501 238.45 132.989 237.475Z" fill="#4D649F"/>
<path d="M196.819 233.889C197.529 234.126 198.239 234.362 198.971 234.606C198.971 238.393 198.971 242.179 198.971 246.081C198.261 246.081 197.551 246.081 196.819 246.081C196.819 242.058 196.819 238.034 196.819 233.889Z" fill="#314B90"/>
<path d="M204.706 234.606C204.942 234.606 205.179 234.606 205.423 234.606C205.423 238.392 205.423 242.179 205.423 246.08C204.239 246.08 203.056 246.08 201.837 246.08C202.784 245.844 203.73 245.607 204.706 245.363C204.706 244.89 204.706 244.417 204.706 243.929C203.996 243.692 203.286 243.456 202.554 243.212C202.554 241.792 202.554 240.372 202.554 238.909C203.027 238.909 203.501 238.909 203.988 238.909C204.225 237.489 204.462 236.069 204.706 234.606Z" fill="#A9B4D1"/>
<path d="M82.0728 237.475C82.7828 237.475 83.4928 237.475 84.2243 237.475C84.2243 240.078 84.2243 242.682 84.2243 245.364C82.5676 245.364 80.911 245.364 79.2041 245.364C79.2041 244.89 79.2041 244.417 79.2041 243.929C79.9141 243.693 80.6241 243.456 81.3556 243.212C81.5923 241.319 81.829 239.426 82.0728 237.475Z" fill="#193985"/>
<path d="M246.304 238.192C247.724 238.192 249.144 238.192 250.607 238.192C250.607 238.902 250.607 239.612 250.607 240.343C249.897 240.343 249.187 240.343 248.455 240.343C248.455 242.237 248.455 244.13 248.455 246.081C247.745 246.081 247.035 246.081 246.304 246.081C246.304 243.477 246.304 240.874 246.304 238.192Z" fill="#F69730"/>
<path d="M224.071 237.475C224.071 237.712 224.071 237.948 224.071 238.192C222.414 238.429 220.757 238.666 219.05 238.909C219.76 239.146 220.47 239.383 221.202 239.627C221.695 241.106 221.695 241.106 221.919 242.495C220.736 242.732 219.552 242.969 218.333 243.212C218.244 242.754 218.156 242.295 218.064 241.823C217.842 241.091 217.842 241.091 217.616 240.344C217.143 240.107 216.669 239.87 216.182 239.627C218.177 236.633 220.819 237.315 224.071 237.475Z" fill="#4B639E"/>
<path d="M166.696 240.343C166.932 241.29 167.169 242.237 167.413 243.212C163.468 246.081 163.468 246.081 160.241 246.081C160.478 245.134 160.715 244.187 160.958 243.212C161.772 243.005 162.585 242.798 163.424 242.584C164.267 242.318 165.11 242.052 165.979 241.778C166.215 241.304 166.452 240.831 166.696 240.343Z" fill="#355193"/>
<path d="M156.656 236.757C156.893 236.757 157.13 236.757 157.373 236.757C157.566 237.541 157.758 238.325 157.956 239.133C158.719 241.503 159.056 242.458 160.959 243.929C160.723 244.402 160.486 244.875 160.242 245.363C158.186 244.952 157.473 244.745 155.939 243.212C155.704 241.265 155.845 239.445 155.939 237.474C156.176 237.238 156.412 237.001 156.656 236.757Z" fill="#113381"/>
<path d="M178.891 238.192C180.666 238.547 180.666 238.547 182.476 238.909C182.476 241.039 182.476 243.169 182.476 245.364C181.766 245.364 181.056 245.364 180.325 245.364C180.325 243.707 180.325 242.05 180.325 240.343C179.852 240.343 179.378 240.343 178.891 240.343C178.891 239.633 178.891 238.923 178.891 238.192Z" fill="#1C3B86"/>
<path d="M100.001 238.192C101.776 238.547 101.776 238.547 103.587 238.909C103.587 241.039 103.587 243.169 103.587 245.364C102.877 245.364 102.167 245.364 101.435 245.364C101.435 243.707 101.435 242.05 101.435 240.343C100.962 240.343 100.489 240.343 100.001 240.343C100.001 239.633 100.001 238.923 100.001 238.192Z" fill="#1C3B86"/>
<path d="M106.454 237.475C109.663 237.215 109.663 237.215 111.34 238.371C112.191 239.626 112.191 239.626 112.191 242.495C110.771 242.495 109.351 242.495 107.888 242.495C107.888 241.548 107.888 240.602 107.888 239.626C107.415 238.916 106.942 238.206 106.454 237.475Z" fill="#1D3D87"/>
<path d="M224.071 245.364C222.726 248.143 222.726 248.143 221.919 248.949C220.485 248.979 219.05 248.98 217.616 248.949C217.143 248.003 216.669 247.056 216.182 246.081C216.98 246.095 217.779 246.11 218.602 246.126C220.784 246.088 222.036 245.364 224.071 245.364Z" fill="#1A3784"/>
<path d="M205.425 238.192C206.135 238.192 206.845 238.192 207.576 238.192C207.576 240.795 207.576 243.399 207.576 246.081C206.866 246.081 206.156 246.081 205.425 246.081C205.425 243.477 205.425 240.874 205.425 238.192Z" fill="#1A3B86"/>
<path d="M260.646 238.192C261.356 238.192 262.066 238.192 262.797 238.192C262.797 240.795 262.797 243.399 262.797 246.081C262.087 246.081 261.377 246.081 260.646 246.081C260.646 243.477 260.646 240.874 260.646 238.192Z" fill="#F69C3B"/>
<path d="M239.13 241.06C239.366 241.77 239.603 242.48 239.847 243.212C241.267 243.212 242.687 243.212 244.15 243.212C244.15 243.922 244.15 244.632 244.15 245.363C243.433 246.081 243.433 246.081 241.729 246.305C239.847 246.081 239.847 246.081 238.547 244.646C238.266 244.173 237.985 243.699 237.695 243.212C238.169 242.502 238.642 241.792 239.13 241.06Z" fill="#F69E3E"/>
<path d="M89.3788 239.179C89.8078 239.326 90.2367 239.474 90.6787 239.627C89.2587 240.337 89.2587 240.337 87.81 241.061C88.3668 243.266 88.3668 243.266 89.9615 244.647C89.2443 245.364 89.2443 245.364 87.4066 245.409C86.8297 245.394 86.2528 245.379 85.6585 245.364C85.524 242.944 85.524 242.944 85.6585 240.344C87.81 238.91 87.81 238.91 89.3788 239.179Z" fill="#062A7C"/>
<path d="M193.95 237.475C194.66 237.475 195.37 237.475 196.101 237.475C196.101 239.605 196.101 241.735 196.101 243.929C195.154 244.166 194.208 244.403 193.232 244.647C193.469 242.28 193.706 239.913 193.95 237.475Z" fill="#133582"/>
<path d="M231.96 241.06C232.196 241.77 232.433 242.48 232.677 243.212C233.38 243.943 234.095 244.662 234.828 245.363C234.828 245.6 234.828 245.837 234.828 246.081C231.603 246.342 231.603 246.342 229.942 245.139C229.091 243.929 229.091 243.929 229.091 241.777C230.525 241.06 230.525 241.06 231.96 241.06Z" fill="#F7A54D"/>
<path d="M267.099 239.626C268.519 239.626 269.939 239.626 271.402 239.626C271.402 240.81 271.402 241.993 271.402 243.212C269.745 243.212 268.089 243.212 266.382 243.212C266.619 242.029 266.855 240.845 267.099 239.626Z" fill="#FDF4E9"/>
<path d="M208.293 238.192C209.003 238.192 209.713 238.192 210.444 238.192C210.444 240.559 210.444 242.925 210.444 245.364C209.734 245.364 209.024 245.364 208.293 245.364C208.293 242.997 208.293 240.63 208.293 238.192Z" fill="#0E2C7D"/>
<path d="M125.819 232.454C127.523 232.365 127.523 232.365 129.405 232.454C130.84 233.889 130.84 233.889 130.84 236.04C128.71 235.685 128.71 235.685 126.537 235.323C126.3 235.796 126.063 236.27 125.819 236.757C125.819 235.337 125.819 233.917 125.819 232.454Z" fill="#4B639F"/>
<path d="M113.628 238.909C114.338 238.909 115.048 238.909 115.779 238.909C116.253 241.276 116.726 243.643 117.214 246.081C114.345 245.364 114.345 245.364 113.628 244.647C113.527 242.731 113.597 240.828 113.628 238.909Z" fill="#27438B"/>
<path d="M273.553 238.909C274.446 240.696 274.11 241.355 273.553 243.212C275.328 243.922 275.328 243.922 277.139 244.647C277.139 244.883 277.139 245.12 277.139 245.364C275.705 245.394 274.27 245.393 272.836 245.364C272.119 244.647 272.119 244.647 271.984 242.54C272.119 240.344 272.119 240.344 273.553 238.909Z" fill="#F69329"/>
<path d="M158.093 233.889C158.566 234.126 159.039 234.362 159.527 234.606C159.054 236.736 158.58 238.866 158.093 241.061C157.856 241.061 157.619 241.061 157.375 241.061C157.139 239.877 156.902 238.694 156.658 237.475C156.422 238.895 156.185 240.315 155.941 241.778C155.704 241.778 155.468 241.778 155.224 241.778C154.871 237.188 154.871 237.188 156.658 235.009C157.132 234.64 157.605 234.27 158.093 233.889Z" fill="#365093"/>
<path d="M183.192 238.909C183.266 239.368 183.34 239.826 183.416 240.299C183.579 240.787 183.741 241.275 183.909 241.778C184.619 242.015 185.329 242.251 186.061 242.495C185.343 243.929 185.343 243.929 183.909 244.647C183.672 245.12 183.436 245.593 183.192 246.081C182.245 245.844 181.299 245.608 180.323 245.364C181.033 245.364 181.743 245.364 182.475 245.364C182.46 244.565 182.445 243.766 182.43 242.943C182.475 240.344 182.475 240.344 183.192 238.909Z" fill="#ACB5D1"/>
<path d="M67.7266 233.172C72.0688 233.032 72.0688 233.032 73.4639 233.172C74.8983 234.606 74.8983 234.606 74.8983 236.758C69.3402 235.592 69.3402 235.592 67.7266 233.172Z" fill="#1D3B86"/>
<path d="M122.95 241.06C123.66 241.06 124.37 241.06 125.102 241.06C126.312 242.495 126.312 242.495 127.253 243.929C127.017 244.402 126.78 244.876 126.536 245.363C125.589 245.127 124.643 244.89 123.667 244.646C123.431 243.463 123.194 242.279 122.95 241.06Z" fill="#203E88"/>
<path d="M257.063 238.192C258.483 238.547 258.483 238.547 259.932 238.909C257.959 243.122 257.959 243.122 256.346 243.929C256.256 239.806 256.256 239.806 257.063 238.192Z" fill="#F7A64F"/>
<path d="M87.806 240.343C88.9894 240.58 90.1727 240.817 91.3919 241.06C90.9186 242.007 90.4452 242.954 89.9576 243.929C89.0109 243.456 88.0642 242.982 87.0889 242.495C87.3255 241.785 87.5622 241.075 87.806 240.343Z" fill="#D9DEEA"/>
<path d="M170.283 239.626C171.703 239.981 171.703 239.981 173.151 240.343C172.915 241.29 172.678 242.237 172.434 243.212C171.487 243.212 170.541 243.212 169.565 243.212C169.802 242.029 170.039 240.845 170.283 239.626Z" fill="#D6DBE8"/>
<path d="M81.3521 238.192C81.5888 238.192 81.8254 238.192 82.0693 238.192C82.0693 239.849 82.0693 241.505 82.0693 243.212C80.8859 242.975 79.7026 242.739 78.4834 242.495C78.4834 241.785 78.4834 241.075 78.4834 240.343C79.4301 240.343 80.3767 240.343 81.3521 240.343C81.3521 239.633 81.3521 238.923 81.3521 238.192Z" fill="#E7EAF1"/>
<path d="M168.848 237.475C170.268 237.475 171.688 237.475 173.151 237.475C172.693 237.638 172.234 237.8 171.762 237.968C170.088 238.803 170.088 238.803 169.745 240.792C169.686 241.354 169.627 241.916 169.566 242.495C169.329 241.785 169.092 241.075 168.848 240.344C168.375 240.344 167.902 240.344 167.414 240.344C167.887 239.397 168.361 238.45 168.848 237.475Z" fill="#375294"/>
<path d="M200.404 238.909C200.641 238.909 200.877 238.909 201.121 238.909C201.121 240.329 201.121 241.749 201.121 243.212C202.305 243.449 203.488 243.686 204.707 243.929C204.707 244.403 204.707 244.876 204.707 245.364C203.512 245.394 202.316 245.393 201.121 245.364C200.404 244.647 200.404 244.647 200.334 243.321C200.357 241.851 200.381 240.38 200.404 238.909Z" fill="#224089"/>
<path d="M132.273 240.343C133.498 241.508 134.693 242.705 135.859 243.929C135.859 244.402 135.859 244.876 135.859 245.363C134.675 245.127 133.492 244.89 132.273 244.646C131.999 243.459 131.761 242.262 131.556 241.06C131.792 240.824 132.029 240.587 132.273 240.343Z" fill="#092D7D"/>
<path d="M134.425 239.626C135.135 239.626 135.845 239.626 136.577 239.626C136.813 240.573 137.05 241.52 137.294 242.495C136.111 242.732 134.927 242.968 133.708 243.212C133.945 242.029 134.181 240.845 134.425 239.626Z" fill="#DDE1EC"/>
<path d="M280.01 238.909C280.321 239.597 280.321 239.597 280.637 240.299C281.321 241.887 281.321 241.887 282.879 242.495C282.642 242.968 282.405 243.442 282.161 243.929C281.451 243.693 280.741 243.456 280.01 243.212C279.773 243.686 279.537 244.159 279.293 244.647C278.819 243.937 278.346 243.227 277.858 242.495C278.332 242.495 278.805 242.495 279.293 242.495C279.529 241.312 279.766 240.128 280.01 238.909Z" fill="#FCE3C9"/>
<path d="M107.171 239.626C107.881 239.863 108.591 240.1 109.323 240.343C108.613 241.408 108.613 241.408 107.888 242.495C109.308 242.495 110.728 242.495 112.191 242.495C111.718 242.968 111.245 243.442 110.757 243.929C108.875 243.66 108.875 243.66 107.171 243.212C106.768 241.823 106.768 241.823 106.454 240.343C106.691 240.107 106.927 239.87 107.171 239.626Z" fill="#8C98BF"/>
<path d="M89.2421 237.968C89.9521 238.042 90.6621 238.116 91.3936 238.192C91.867 238.902 92.3403 239.612 92.828 240.343C90.6765 241.061 90.6765 241.061 89.2421 240.388C88.7688 240.137 88.2954 239.885 87.8078 239.626C87.0978 239.626 86.3878 239.626 85.6562 239.626C87.0906 238.192 87.0906 238.192 89.2421 237.968Z" fill="#1E3C87"/>
<path d="M109.324 243.212C110.848 243.884 110.848 243.884 112.193 244.646C110.042 246.08 110.042 246.08 107.173 246.08C107.41 245.37 107.646 244.66 107.89 243.929C108.363 243.692 108.837 243.456 109.324 243.212Z" fill="#2E4A8F"/>
<path d="M218.334 240.343C220.109 240.698 220.109 240.698 221.92 241.06C221.683 241.77 221.447 242.48 221.203 243.212C220.256 243.212 219.309 243.212 218.334 243.212C218.334 242.265 218.334 241.319 218.334 240.343Z" fill="#E7EAF1"/>
<path d="M202.557 238.909C203.267 238.909 203.977 238.909 204.708 238.909C204.708 240.329 204.708 241.749 204.708 243.212C203.998 243.212 203.288 243.212 202.557 243.212C202.557 241.792 202.557 240.372 202.557 238.909Z" fill="#E8EAF1"/>
<path d="M281.444 237.475C282.645 237.68 283.842 237.918 285.03 238.192C285.03 238.665 285.03 239.139 285.03 239.626C284.556 239.626 284.083 239.626 283.595 239.626C283.359 240.1 283.122 240.573 282.878 241.061C282.641 240.351 282.405 239.641 282.161 238.909C281.688 238.673 281.214 238.436 280.727 238.192C280.963 237.955 281.2 237.719 281.444 237.475Z" fill="#F7A954"/>
<path d="M78.4847 237.475C79.4314 237.475 80.3781 237.475 81.3534 237.475C81.3534 238.422 81.3534 239.368 81.3534 240.344C80.4068 240.344 79.4601 240.344 78.4847 240.344C78.2481 239.634 78.0114 238.924 77.7676 238.192C78.0042 237.955 78.2409 237.719 78.4847 237.475Z" fill="#455C9A"/>
</g>
<defs>
<clipPath id="clip0_89_9">
<rect width="284" height="180.727" fill="white" transform="translate(29 84)"/>
</clipPath>
</defs>
</svg>
