<svg id="Layer_1" data-name="Layer 1" xmlns="http://www.w3.org/2000/svg" xmlns:xlink="http://www.w3.org/1999/xlink" viewBox="0 0 87.12 55.44"><defs><style>.cls-1{fill:none;}.cls-2{clip-path:url(#clip-path);}.cls-3{fill:#253676;}.cls-4{fill:#263777;}.cls-5{fill:#263879;}.cls-6,.cls-8{fill:#f79329;}.cls-7{font-size:7px;fill:#243e82;font-family:BerlinSansFB-Bold, Berlin Sans FB;font-weight:700;}.cls-8{letter-spacing:0em;}</style><clipPath id="clip-path" transform="translate(-254.38 -392.81)"><rect class="cls-1" x="254.38" y="392.81" width="87.12" height="55.44"/></clipPath></defs><g class="cls-2"><path class="cls-1" d="M254.38,392.81H341.5v55.44H254.38Z" transform="translate(-254.38 -392.81)"/><path class="cls-3" d="M276,400.47h.48a9.18,9.18,0,0,1,9.22,9.68A15.87,15.87,0,0,1,283,417l-.65,1.06c-.6,1-1.21,2-1.82,2.94l-1.95,3.15-.37.58c-.11.18-.22.37-.34.55s-.19.32-.29.48l-1,1.58,10.12.22v5.94H265.6a28.35,28.35,0,0,1,2.07-3.66c.69-1,1.33-2.06,2-3.11l.44-.71q1.28-2,2.54-4.1c.37-.61.75-1.22,1.13-1.82,1.11-1.8,2.22-3.59,3.31-5.4l.24-.39c1-1.73,1.9-3.38,1.71-5.45a3.7,3.7,0,0,0-1.11-1.73,5,5,0,0,0-2.85-.25,4.34,4.34,0,0,0-2,2.2l-.22,2h-5.94c0-3.15.41-5.57,2.6-7.9A9,9,0,0,1,276,400.47Z" transform="translate(-254.38 -392.81)"/><path class="cls-4" d="M311.14,402.71q-1.54,2.49-3.3,4.84c-.56-.11-1.11-.23-1.66-.39a10.49,10.49,0,0,0-13.74,7l-.27.74a10.21,10.21,0,0,0,1.34,7.43,11.26,11.26,0,0,0,6.88,4.89,14.63,14.63,0,0,0,6.13-.52l1.1-.22c.36.52.71,1,1.06,1.58l.3.45.58.87c.22.34.45.67.68,1a1.76,1.76,0,0,1,.27,1c-.4.68-1,.82-1.69,1.11l-.8.33a14.3,14.3,0,0,1-5.43.79h-.75a15.34,15.34,0,0,1-6.54-1.38l-.54-.23a16,16,0,0,1-7.86-8.32,18.31,18.31,0,0,1-1.14-6.76c0-.25,0-.5,0-.76a16.39,16.39,0,0,1,4.39-10.7.76.76,0,0,1,.76-.29v-.44C296.7,399.7,304.53,398.73,311.14,402.71Z" transform="translate(-254.38 -392.81)"/><path class="cls-5" d="M305.86,412.39l.22.44h-.51l-2.32.07-.81,0-.78,0-.72,0c-.61,0-.61,0-1,.51h.64l2.35.05h1l1.46,0h.46a6.38,6.38,0,0,1,1.12.11,1.86,1.86,0,0,1,.44,1.54h-.86l-3.15.06-1.37,0-2,0h-.62l-.58,0h-.5c-.47,0-.47,0-.86.5l10.34.22a7.48,7.48,0,0,1-1.34,4.69,6.66,6.66,0,0,1-5.35,1.8,5.72,5.72,0,0,1-2.77-1.21V421l.5,0,2.23-.06.78,0,.75,0,.69,0c.59,0,.59,0,1-.51h-.61c-.76,0-1.51,0-2.26,0h-1l-1.41,0h-.86c-.7-.14-.7-.14-1.12-.67a1.77,1.77,0,0,1-.24-1l.87,0,3.15,0,1.37,0,2,0h1.7c.47,0,.47,0,.85-.5l-10.34-.22c0-2.11.28-3.43,1.76-4.95A6.13,6.13,0,0,1,305.86,412.39Z" transform="translate(-254.38 -392.81)"/><path class="cls-6" d="M332.82,418.81l-.12-.48a14,14,0,0,0-.41-1.4,11.51,11.51,0,0,0-5.66-6.26l-.55-.21c-.47-.24-.47-.24-.56-.8,0-.19,0-.38-.08-.57a5.5,5.5,0,0,0-2.67-2.85,5.63,5.63,0,0,0-4,0l-.57.39-.56.34a6,6,0,0,0-1.72,3.23,5.72,5.72,0,0,0,1.46,3.94,4,4,0,0,0,2.77,1.35A5.18,5.18,0,0,0,324.3,414c.17-.18.33-.34.48-.51a7.26,7.26,0,0,1,3.91,3.45,9.13,9.13,0,0,1-4.79,13,10.77,10.77,0,0,1-7.44-.57,9.13,9.13,0,0,1-4.16-5.23,2.32,2.32,0,0,0-.72-1.44,19.76,19.76,0,0,0-2.2,2.86,2.22,2.22,0,0,0,.35,1.33l.31.43a16.45,16.45,0,0,0,2,2.73,12.12,12.12,0,0,0,8.34,3.49H321c.68,0,1.36,0,2-.07a11.91,11.91,0,0,0,7.09-4.12l.39-.5c.24-.3.48-.6.71-.91A12.89,12.89,0,0,0,332.82,418.81ZM322,412.15a3.27,3.27,0,0,1-2.07.24,2.38,2.38,0,0,1-.88-1.1,3.82,3.82,0,0,1,.46-2,3,3,0,0,1,2.18-.23,2.08,2.08,0,0,1,.88,1.1A2.54,2.54,0,0,1,322,412.15Z" transform="translate(-254.38 -392.81)"/><path class="cls-5" d="M331.8,407.24a12.47,12.47,0,0,0-6.94-6.12l-.52-.17a13.52,13.52,0,0,0-6.6-.22,12.78,12.78,0,0,0-7.45,5.57,13.47,13.47,0,0,0-1.35,9.8,12.76,12.76,0,0,0,5.85,7.26c.62.32,1.11.44,1.35,1.12l.06.45a7.09,7.09,0,0,0,2.3,2.84,6.4,6.4,0,0,0,4.36,0,6.29,6.29,0,0,0,2.8-3.32,5,5,0,0,0-.78-3.82,5.92,5.92,0,0,0-3.14-2.24,5.26,5.26,0,0,0-3.8,1.11,5.24,5.24,0,0,1-1.52,1,9.75,9.75,0,0,1-4.15-4.95c-.49-1.87-.67-4.54.19-6.31l.22-.4a9.08,9.08,0,0,1,4.9-4.62,9.94,9.94,0,0,1,7.29.38,8.66,8.66,0,0,1,4.37,5,7.07,7.07,0,0,0,.82,1.68l.8-1,.32-.4a17.35,17.35,0,0,0,1.08-1.47A8.26,8.26,0,0,0,331.8,407.24ZM321,421.61a2.32,2.32,0,0,1,1.63,1.12,3.68,3.68,0,0,1-.45,2,3,3,0,0,1-2.19.24,2.61,2.61,0,0,1-1-1.65A1.87,1.87,0,0,1,321,421.61Z" transform="translate(-254.38 -392.81)"/><text class="cls-7" transform="translate(8.04 50.42) scale(0.69 1)">Cabinet Soft Consulting <tspan class="cls-8" x="80.36" y="0">Services</tspan></text></g></svg>