<svg width="676" height="584" viewBox="0 0 676 584" fill="none" xmlns="http://www.w3.org/2000/svg">
<path d="M543.193 544.525L512.157 116.698C509.825 84.5811 473.625 67.0321 446.944 85.1083L91.9356 325.9C65.2877 343.976 68.2012 384.13 97.1814 398.171L483.177 585.2C512.212 599.247 545.532 576.628 543.193 544.525Z" fill="#6DC8C2"/>
<path d="M308.609 265.024L308.609 265.024L300.377 205.93L331.094 201.646C333.422 201.373 343.093 200.499 351.768 207.211L351.769 207.212C355.211 209.859 358.125 213.481 360.638 218.91C363.112 224.255 369.606 240.827 372.605 258.286C374.104 267.016 374.725 275.939 373.549 283.779C372.373 291.618 369.41 298.323 363.788 302.702C361.01 304.84 357.793 306.335 354.368 307.078C331.223 306.286 311.879 288.533 308.609 265.024Z" fill="#133985" stroke="black"/>
<path d="M435.51 328.529C441.666 414.368 447.788 499.659 453.951 585.497H267.366L252.264 357.827C278.575 346.34 306.118 337.914 334.352 332.712C374.675 325.319 406.636 324.979 435.51 328.529Z" fill="#133985" stroke="black"/>
<path d="M352.683 305.336L345.247 284.927C352.568 284.63 358.422 278.269 358.422 270.44C358.422 262.416 352.291 255.92 344.72 255.92C341.475 255.928 338.346 257.132 335.932 259.3L321.932 220.829L264.533 239.304C261.872 240.159 259.407 241.529 257.276 243.338C255.146 245.146 253.393 247.356 252.117 249.842C250.841 252.328 250.068 255.041 249.842 257.826C249.615 260.612 249.939 263.414 250.796 266.074L266.344 314.387C268.712 321.712 273.889 327.799 280.738 331.312C287.588 334.825 295.552 335.477 302.882 333.126L311.231 329.394L318.207 344.307C318.507 344.966 319.029 345.499 319.681 345.814C331.801 351.642 345.328 350.215 353.656 342.434C359.409 337.074 362.593 332.247 363.513 329.09C363.714 328.351 363.635 327.564 363.289 326.88L352.683 305.336Z" fill="#F69228"/>
<path d="M311.244 329.421L336.405 317.929C336.572 317.857 336.759 317.843 336.934 317.891C337.11 317.939 337.264 318.046 337.371 318.194C337.477 318.341 337.53 318.521 337.521 318.703C337.511 318.885 337.439 319.058 337.317 319.194L316.767 341.231L311.244 329.421Z" fill="black"/>
<path d="M343.57 276.443C342.597 276.445 341.647 276.158 340.838 275.618C340.028 275.079 339.397 274.312 339.024 273.414C338.651 272.516 338.553 271.528 338.742 270.574C338.931 269.62 339.398 268.744 340.085 268.056C340.773 267.368 341.648 266.899 342.602 266.709C343.555 266.519 344.544 266.616 345.442 266.988C346.341 267.359 347.108 267.989 347.649 268.798C348.189 269.606 348.477 270.556 348.477 271.529C348.477 272.831 347.961 274.08 347.04 275.001C346.12 275.923 344.872 276.442 343.57 276.443ZM343.57 269.325C343.132 269.324 342.704 269.452 342.339 269.695C341.975 269.937 341.69 270.282 341.522 270.686C341.354 271.091 341.31 271.536 341.395 271.965C341.48 272.395 341.69 272.789 342 273.099C342.309 273.408 342.704 273.619 343.133 273.704C343.563 273.789 344.008 273.745 344.412 273.576C344.816 273.408 345.161 273.124 345.404 272.759C345.646 272.395 345.775 271.967 345.773 271.529C345.773 270.944 345.541 270.384 345.128 269.97C344.715 269.557 344.154 269.325 343.57 269.325Z" fill="black"/>
<path d="M340.109 273.706C339.776 273.708 339.453 273.587 339.204 273.366C338.954 273.145 338.795 272.84 338.757 272.509C338.412 269.582 339.081 267.216 340.744 265.465C343.868 262.173 349.343 262.477 349.573 262.491C349.932 262.513 350.267 262.677 350.504 262.947C350.742 263.216 350.863 263.569 350.84 263.927C350.818 264.286 350.654 264.621 350.385 264.859C350.115 265.096 349.763 265.217 349.404 265.195C349.363 265.195 344.942 264.958 342.698 267.331C341.603 268.487 341.197 270.076 341.441 272.198C341.481 272.553 341.379 272.909 341.157 273.189C340.935 273.469 340.612 273.65 340.258 273.692L340.109 273.706Z" fill="black"/>
<path d="M290.295 311.568C288.549 311.589 286.823 311.196 285.259 310.419C284.964 310.232 284.754 309.939 284.671 309.6C284.588 309.261 284.639 308.903 284.813 308.602C284.988 308.3 285.272 308.077 285.607 307.98C285.942 307.883 286.302 307.919 286.611 308.08C286.921 308.249 293.878 312.015 300.996 301.962C301.094 301.808 301.223 301.676 301.374 301.573C301.526 301.47 301.696 301.399 301.876 301.364C302.056 301.329 302.24 301.33 302.419 301.369C302.598 301.407 302.767 301.482 302.917 301.587C303.066 301.693 303.192 301.828 303.288 301.984C303.383 302.14 303.446 302.314 303.473 302.495C303.499 302.676 303.489 302.861 303.442 303.038C303.395 303.214 303.312 303.38 303.2 303.524C298.582 310.047 293.769 311.568 290.295 311.568Z" fill="black"/>
<path d="M298.596 275.375C300.231 275.375 301.557 274.05 301.557 272.414C301.557 270.779 300.231 269.454 298.596 269.454C296.96 269.454 295.635 270.779 295.635 272.414C295.635 274.05 296.96 275.375 298.596 275.375Z" fill="black"/>
<path d="M263.937 287.915C265.573 287.915 266.898 286.59 266.898 284.954C266.898 283.319 265.573 281.993 263.937 281.993C262.302 281.993 260.977 283.319 260.977 284.954C260.977 286.59 262.302 287.915 263.937 287.915Z" fill="black"/>
<path d="M263.187 301.165C256.393 301.165 250.086 295.689 248.457 287.881C246.618 279.093 251.398 270.63 259.104 269.014C261.012 268.636 262.979 268.678 264.869 269.137C266.759 269.596 268.526 270.46 270.049 271.671C273.347 274.249 275.609 277.927 276.423 282.034C277.324 286.122 276.724 290.398 274.733 294.08C273.825 295.8 272.552 297.302 271.004 298.48C269.456 299.658 267.67 300.484 265.769 300.901C264.92 301.076 264.055 301.164 263.187 301.165ZM261.707 271.421C261.025 271.424 260.346 271.496 259.679 271.637C253.426 272.942 249.586 279.972 251.121 287.3C252.655 294.628 258.989 299.529 265.235 298.224C266.756 297.886 268.183 297.219 269.419 296.271C270.654 295.323 271.667 294.116 272.388 292.735C274.057 289.623 274.551 286.014 273.78 282.568C273.111 279.088 271.207 275.967 268.419 273.78C266.499 272.285 264.14 271.466 261.707 271.448V271.421Z" fill="black"/>
<path d="M276.254 282.568C275.934 282.566 275.624 282.449 275.381 282.24C275.138 282.031 274.978 281.742 274.928 281.425C274.879 281.108 274.943 280.784 275.111 280.51C275.278 280.237 275.537 280.032 275.842 279.932L288.051 275.997C288.383 275.914 288.735 275.961 289.035 276.128C289.334 276.295 289.559 276.569 289.664 276.896C289.769 277.222 289.746 277.577 289.599 277.887C289.453 278.197 289.194 278.44 288.875 278.566L276.674 282.507C276.537 282.547 276.396 282.568 276.254 282.568Z" fill="black"/>
<path d="M282.325 296.994C281.636 297.012 280.95 296.879 280.318 296.605C279.685 296.331 279.119 295.921 278.661 295.405C277.309 293.763 277.539 291.511 278.181 290.085C278.639 289.085 279.383 288.244 280.318 287.665L274.754 272.793C274.652 272.463 274.679 272.107 274.831 271.797C274.983 271.487 275.248 271.247 275.571 271.126C275.895 271.005 276.252 271.012 276.57 271.146C276.888 271.28 277.143 271.531 277.282 271.847L283.772 289.145L282.42 289.592C282.032 289.72 281.673 289.925 281.365 290.194C281.057 290.464 280.807 290.792 280.629 291.16C280.385 291.694 280.095 292.897 280.71 293.627C281.325 294.357 282.738 294.574 284.049 293.729C284.197 293.62 284.366 293.542 284.545 293.5C284.724 293.458 284.909 293.454 285.09 293.486C285.271 293.519 285.444 293.588 285.597 293.689C285.75 293.79 285.881 293.922 285.982 294.076C286.083 294.229 286.151 294.402 286.183 294.583C286.215 294.764 286.209 294.95 286.167 295.128C286.125 295.307 286.046 295.476 285.937 295.623C285.827 295.771 285.689 295.894 285.53 295.987C284.581 296.625 283.468 296.975 282.325 296.994Z" fill="black"/>
<path d="M318.452 214.694C319.736 220.837 317.546 227.142 312.885 232.378C308.225 237.614 301.116 241.751 292.655 243.52C284.194 245.289 276.023 244.347 269.655 241.417C263.287 238.487 258.754 233.588 257.47 227.444C256.185 221.301 258.376 214.996 263.036 209.76C267.696 204.524 274.805 200.387 283.266 198.618C291.727 196.849 299.899 197.791 306.266 200.721C312.634 203.651 317.167 208.55 318.452 214.694Z" fill="#133985" stroke="black"/>
<path d="M336.493 213.55L344.34 243.752L327.863 248.034C327.863 248.034 327.863 248.034 327.863 248.034C323.375 249.199 318.608 248.534 314.61 246.185C310.612 243.836 307.71 239.995 306.543 235.508C306.543 235.508 306.543 235.507 306.543 235.507L303.093 222.228L336.493 213.55Z" fill="#133985" stroke="black"/>
<path d="M272.361 238.229C272.361 250.736 262.222 260.875 249.715 260.875C237.207 260.875 227.068 250.736 227.068 238.229C227.068 225.722 237.207 215.583 249.715 215.583C262.222 215.583 272.361 225.722 272.361 238.229Z" fill="#133985" stroke="black"/>
<path d="M312.84 269.427C312.525 269.427 312.219 269.318 311.976 269.118C311.733 268.917 311.568 268.638 311.509 268.329C311.449 268.02 311.5 267.699 311.652 267.423C311.803 267.147 312.047 266.933 312.339 266.817L337.649 256.677C337.816 256.6 337.996 256.558 338.18 256.553C338.363 256.548 338.546 256.581 338.717 256.649C338.887 256.716 339.042 256.818 339.172 256.948C339.302 257.078 339.404 257.233 339.472 257.404C339.54 257.574 339.572 257.757 339.568 257.94C339.563 258.124 339.521 258.304 339.444 258.471C339.367 258.638 339.257 258.787 339.12 258.91C338.983 259.033 338.823 259.126 338.649 259.185L313.34 269.325C313.181 269.389 313.011 269.423 312.84 269.427Z" fill="black"/>
<path d="M217.267 484.875L211.352 563.872L213.427 583.253H266.716L260.375 487.633L217.267 484.875Z" fill="#F69228"/>
<path d="M268.163 584.605H212.211L210 563.892L216.023 483.448L261.646 486.362L268.163 584.605ZM214.644 581.901H265.27L259.105 488.903L218.545 486.308L212.711 563.851L214.644 581.901Z" fill="black"/>
<path d="M221.209 406.196C225.134 388.661 230.202 370.916 245.485 361.279C247.336 360.114 249.277 359.099 251.289 358.245L260.926 503.511C252.529 502.975 243.42 502.438 234.327 501.902C225.59 501.386 216.868 500.872 208.807 500.361C210.984 467.18 217.072 424.696 221.209 406.196Z" fill="#133985" stroke="black"/>
<path d="M236.769 423.92H74.6577C74.2991 423.92 73.9552 423.777 73.7017 423.524C73.4481 423.27 73.3057 422.926 73.3057 422.568C73.3057 422.209 73.4481 421.865 73.7017 421.612C73.9552 421.358 74.2991 421.216 74.6577 421.216H236.769C237.128 421.216 237.472 421.358 237.725 421.612C237.979 421.865 238.121 422.209 238.121 422.568C238.121 422.926 237.979 423.27 237.725 423.524C237.472 423.777 237.128 423.92 236.769 423.92Z" fill="#F69228"/>
<path d="M157.029 423.176H89.7531C88.3976 423.174 87.098 422.636 86.1389 421.678C85.1798 420.72 84.6393 419.421 84.6357 418.066V408.5C84.6375 407.143 85.1772 405.843 86.1365 404.884C87.0958 403.924 88.3964 403.385 89.7531 403.383H157.029C158.385 403.385 159.686 403.924 160.645 404.884C161.604 405.843 162.144 407.143 162.146 408.5V418.072C162.141 419.427 161.599 420.724 160.64 421.68C159.681 422.636 158.383 423.174 157.029 423.176ZM89.7531 406.08C89.4361 406.08 89.1223 406.142 88.8295 406.264C88.5367 406.385 88.2707 406.563 88.0466 406.787C87.8225 407.011 87.6447 407.277 87.5235 407.57C87.4022 407.863 87.3397 408.176 87.3397 408.493V418.066C87.3415 418.704 87.5966 419.317 88.049 419.768C88.5014 420.219 89.1142 420.472 89.7531 420.472H157.029C157.667 420.472 158.28 420.219 158.733 419.768C159.185 419.317 159.44 418.704 159.442 418.066V408.5C159.442 407.86 159.188 407.246 158.735 406.794C158.282 406.341 157.669 406.087 157.029 406.087L89.7531 406.08Z" fill="#F69228"/>
<path d="M157.021 386.557H89.7526C87.6731 386.557 85.9873 388.243 85.9873 390.322V399.888C85.9873 401.967 87.6731 403.653 89.7526 403.653H157.021C159.101 403.653 160.787 401.967 160.787 399.888V390.322C160.787 388.243 159.101 386.557 157.021 386.557Z" fill="#FFBB45"/>
<path d="M174.692 422.838H165.113C163.759 422.836 162.46 422.297 161.502 421.339C160.544 420.381 160.005 419.082 160.003 417.727V362.018C160.005 360.663 160.544 359.365 161.502 358.407C162.46 357.449 163.759 356.91 165.113 356.908H174.692C176.047 356.91 177.346 357.449 178.304 358.407C179.262 359.365 179.801 360.663 179.803 362.018V417.727C179.801 419.082 179.262 420.381 178.304 421.339C177.346 422.297 176.047 422.836 174.692 422.838ZM165.113 359.632C164.476 359.634 163.865 359.888 163.414 360.339C162.963 360.79 162.709 361.401 162.707 362.039V417.748C162.709 418.385 162.963 418.997 163.414 419.447C163.865 419.898 164.476 420.153 165.113 420.154H174.692C175.33 420.153 175.941 419.898 176.392 419.447C176.843 418.997 177.097 418.385 177.099 417.748V362.018C177.097 361.381 176.843 360.77 176.392 360.319C175.941 359.868 175.33 359.613 174.692 359.612L165.113 359.632Z" fill="#F69228"/>
<path d="M192.984 358.26H183.419C181.339 358.26 179.653 359.946 179.653 362.025V417.728C179.653 419.807 181.339 421.493 183.419 421.493H192.984C195.064 421.493 196.749 419.807 196.749 417.728V362.025C196.749 359.946 195.064 358.26 192.984 358.26Z" fill="#FFC1EB"/>
<path d="M334.769 366.061C325.798 365.975 317.035 363.345 309.5 358.476C309.215 358.274 309.019 357.97 308.954 357.627C308.888 357.283 308.958 356.928 309.148 356.636C309.339 356.343 309.635 356.135 309.976 356.056C310.316 355.977 310.674 356.033 310.974 356.211C315.172 358.915 326.522 365.081 340.873 362.897C360.66 359.896 370.462 343.827 372.226 340.636C372.308 340.474 372.421 340.329 372.56 340.211C372.699 340.093 372.86 340.005 373.034 339.951C373.208 339.897 373.391 339.878 373.572 339.897C373.753 339.915 373.928 339.97 374.088 340.058C374.247 340.146 374.387 340.265 374.499 340.408C374.612 340.552 374.694 340.716 374.741 340.892C374.788 341.068 374.799 341.252 374.773 341.432C374.748 341.612 374.686 341.785 374.592 341.941C372.719 345.321 362.316 362.377 341.279 365.567C339.124 365.897 336.948 366.062 334.769 366.061Z" fill="white"/>
<path d="M285.66 374.094L254.68 382.25C250.593 383.326 248.153 387.512 249.229 391.599L265.839 454.689C266.915 458.776 271.1 461.217 275.187 460.141L306.167 451.985C310.254 450.909 312.695 446.724 311.619 442.637L295.009 379.546C293.933 375.459 289.747 373.018 285.66 374.094Z" fill="#FFC1EB"/>
<path d="M285.048 385.106L284.534 385.221C282.869 385.594 281.822 387.247 282.196 388.911L285.222 402.407C285.595 404.072 287.248 405.119 288.913 404.746L289.427 404.63C291.092 404.257 292.139 402.605 291.765 400.94L288.739 387.444C288.366 385.779 286.713 384.732 285.048 385.106Z" fill="white"/>
<path d="M300.82 287.07C294.06 287.07 287.847 281.811 286.272 274.287C284.508 265.776 289.328 257.556 297.048 255.933C304.768 254.311 312.481 259.929 314.259 268.439C316.036 276.95 311.21 285.184 303.497 286.793C302.617 286.98 301.719 287.072 300.82 287.07ZM299.704 258.36C298.993 258.359 298.284 258.431 297.588 258.577C291.335 259.888 287.448 266.689 288.922 273.732C290.396 280.776 296.676 285.454 302.929 284.15C309.182 282.845 313.069 276.038 311.595 268.994C310.284 262.741 305.214 258.36 299.718 258.36H299.704Z" fill="black"/>
<path d="M463.276 177.889H407.317C399.178 177.889 392.58 184.487 392.58 192.626V245.192C392.58 253.331 399.178 259.929 407.317 259.929H463.276C471.415 259.929 478.013 253.331 478.013 245.192V192.626C478.013 184.487 471.415 177.889 463.276 177.889Z" fill="white"/>
<path d="M426.185 458.058L260.112 477.29L258.138 453.819L421.351 434.54L426.185 458.058Z" fill="#C7B8F8"/>
<path d="M438.021 509.657L261.842 529.578L260.146 504.201L432.471 484.097L438.021 509.657Z" fill="#C7B8F8"/>
<path d="M316.99 428.516C316.99 428.516 294.858 430.477 283.312 410.65C282.228 408.779 280.752 407.164 278.985 405.918C275.95 403.782 271.407 402.443 266.716 407.804C266.716 407.804 259.09 397.711 253.459 403.477C253.459 403.477 249.444 408.568 254.811 417.146C254.811 417.146 246.233 420.709 254.73 435.709C256.035 438.014 257.306 440.34 258.435 442.733C263.005 452.372 279.256 479.744 317.99 483.719C320.515 483.989 322.91 484.977 324.892 486.565L416.72 559.471C425.18 566.25 435.061 571.031 445.626 573.458C460.741 576.838 487.95 575.066 502.031 555.435C510.299 543.745 513.87 529.374 512.036 515.173L507.771 480.494L431.288 493.027L354.082 444.619C351.505 442.995 349.405 440.716 347.998 438.014C343.516 429.463 332.227 409.622 319.701 400.99C319.268 400.692 318.842 400.402 318.423 400.091C315.719 398.063 312.339 396.386 308.925 396.332C303.517 396.251 298.934 401.247 302.273 406.317C303.74 408.547 306.1 410.373 308.283 411.873C310.547 413.414 312.473 415.4 313.942 417.711C315.411 420.022 316.393 422.608 316.828 425.312C316.989 426.372 317.043 427.446 316.99 428.516Z" fill="#F69228"/>
<path d="M292.978 442.604C292.772 442.603 292.568 442.554 292.383 442.462C288.786 440.71 285.415 438.526 282.345 435.959C271.941 427.232 267.392 416.004 265.404 408.122C265.315 407.774 265.367 407.405 265.549 407.095C265.732 406.786 266.03 406.562 266.378 406.472C266.725 406.382 267.095 406.435 267.404 406.617C267.713 406.8 267.937 407.098 268.027 407.446C269.913 414.942 274.233 425.61 284.082 433.877C286.976 436.302 290.154 438.365 293.546 440.022C293.822 440.156 294.044 440.379 294.176 440.655C294.309 440.932 294.343 441.245 294.274 441.544C294.205 441.842 294.036 442.109 293.796 442.299C293.556 442.489 293.258 442.592 292.951 442.591L292.978 442.604Z" fill="black"/>
<path d="M284.298 454.029C284.089 454.032 283.882 453.983 283.697 453.887C281.882 453.071 280.193 452.001 278.681 450.709C278.16 450.29 277.504 449.77 276.653 449.08C266.513 441.232 258.549 430.355 253.574 417.626C253.5 417.459 253.461 417.279 253.458 417.097C253.456 416.914 253.49 416.733 253.559 416.564C253.629 416.396 253.732 416.243 253.862 416.115C253.992 415.987 254.146 415.886 254.316 415.819C254.486 415.753 254.668 415.721 254.85 415.727C255.032 415.732 255.212 415.774 255.377 415.851C255.543 415.927 255.691 416.037 255.814 416.172C255.936 416.308 256.03 416.466 256.089 416.639C260.895 428.915 268.574 439.393 278.309 446.944C279.208 447.62 279.87 448.174 280.398 448.6C281.761 449.775 283.289 450.743 284.934 451.473C285.203 451.611 285.418 451.836 285.545 452.111C285.672 452.386 285.703 452.695 285.633 452.99C285.562 453.284 285.395 453.547 285.158 453.735C284.921 453.923 284.628 454.027 284.325 454.029H284.298Z" fill="black"/>
<path d="M323.763 585.471H210.601V561.938H323.763C325.141 561.94 326.463 562.488 327.437 563.463C328.412 564.438 328.96 565.759 328.962 567.138V580.278C328.96 581.656 328.412 582.976 327.437 583.95C326.462 584.924 325.141 585.471 323.763 585.471Z" fill="#F69228" stroke="black"/>
<path d="M222.275 585.47L89.942 585.47L89.937 585.47C87.5674 585.494 85.2535 584.752 83.3402 583.354C81.4278 581.956 80.018 579.978 79.3208 577.714C79.3206 577.713 79.3203 577.712 79.32 577.711L46.7588 467.326C46.7588 467.326 46.7587 467.326 46.7587 467.326C44.75 460.514 50.0194 453.69 57.3791 453.69L182.791 453.69L182.795 453.69C185.269 453.668 187.678 454.48 189.633 455.996C191.587 457.511 192.973 459.641 193.567 462.042C193.567 462.042 193.567 462.043 193.567 462.044L222.275 585.47Z" fill="#F69228" stroke="black"/>
<path d="M126.338 548.48C136.515 548.48 144.766 540.229 144.766 530.052C144.766 519.874 136.515 511.624 126.338 511.624C116.161 511.624 107.91 519.874 107.91 530.052C107.91 540.229 116.161 548.48 126.338 548.48Z" fill="#FFC1EB"/>
<path d="M122.288 516.903C121.985 516.903 121.691 516.8 121.454 516.613C121.216 516.425 121.048 516.163 120.977 515.869L118.773 506.844C118.731 506.672 118.723 506.493 118.75 506.317C118.777 506.141 118.839 505.973 118.931 505.821C119.023 505.669 119.145 505.537 119.288 505.432C119.431 505.326 119.594 505.251 119.767 505.209C119.939 505.166 120.119 505.159 120.294 505.186C120.47 505.213 120.639 505.274 120.791 505.367C120.942 505.459 121.075 505.58 121.18 505.724C121.285 505.867 121.36 506.03 121.403 506.202L123.6 515.227C123.649 515.426 123.652 515.634 123.609 515.834C123.566 516.035 123.478 516.223 123.352 516.384C123.226 516.546 123.064 516.677 122.88 516.766C122.696 516.856 122.493 516.903 122.288 516.903Z" fill="#6DC8C2"/>
<path d="M433.355 494.022L400.578 326.577L423.378 326.9L423.381 326.9C437.802 327.024 451.804 331.765 463.334 340.427C469.337 344.962 474.443 350.575 478.391 356.979C481.225 361.632 483.411 366.65 484.887 371.895L484.891 371.909L484.896 371.923L522.131 479.166L433.355 494.022Z" fill="#133985" stroke="black"/>
<path d="M561.918 284.954H463.04C456.349 284.954 450.926 290.378 450.926 297.068V360.322C450.926 367.012 456.349 372.436 463.04 372.436H561.918C568.609 372.436 574.032 367.012 574.032 360.322V297.068C574.032 290.378 568.609 284.954 561.918 284.954Z" fill="white"/>
<path d="M561.918 373.787H463.059C459.487 373.779 456.063 372.356 453.536 369.83C451.008 367.304 449.584 363.881 449.573 360.308V297.075C449.586 293.503 451.011 290.082 453.538 287.557C456.065 285.033 459.488 283.611 463.059 283.602H561.918C565.487 283.615 568.907 285.038 571.431 287.562C573.954 290.086 575.378 293.506 575.39 297.075V360.308C575.38 363.879 573.957 367.3 571.433 369.825C568.909 372.351 565.488 373.775 561.918 373.787ZM463.059 286.306C460.208 286.321 457.478 287.46 455.463 289.476C453.448 291.493 452.31 294.224 452.298 297.075V360.308C452.298 363.163 453.431 365.902 455.449 367.923C457.467 369.943 460.204 371.08 463.059 371.083H561.918C564.774 371.082 567.513 369.946 569.533 367.925C571.552 365.904 572.686 363.165 572.686 360.308V297.075C572.674 294.223 571.535 291.491 569.519 289.474C567.502 287.457 564.77 286.319 561.918 286.306H463.059Z" fill="black"/>
<path d="M557.741 315.205H521.054C520.696 315.205 520.352 315.063 520.098 314.809C519.845 314.556 519.702 314.212 519.702 313.853C519.702 313.495 519.845 313.151 520.098 312.897C520.352 312.644 520.696 312.501 521.054 312.501H557.741C558.099 312.501 558.443 312.644 558.697 312.897C558.95 313.151 559.093 313.495 559.093 313.853C559.093 314.212 558.95 314.556 558.697 314.809C558.443 315.063 558.099 315.205 557.741 315.205Z" fill="black"/>
<path d="M557.741 330.05H521.054C520.696 330.05 520.352 329.908 520.098 329.654C519.845 329.401 519.702 329.057 519.702 328.698C519.702 328.34 519.845 327.996 520.098 327.742C520.352 327.489 520.696 327.346 521.054 327.346H557.741C558.099 327.346 558.443 327.489 558.697 327.742C558.95 327.996 559.093 328.34 559.093 328.698C559.093 329.057 558.95 329.401 558.697 329.654C558.443 329.908 558.099 330.05 557.741 330.05Z" fill="black"/>
<path d="M544.937 344.888H521.054C520.696 344.888 520.352 344.746 520.098 344.492C519.845 344.239 519.702 343.895 519.702 343.536C519.702 343.178 519.845 342.834 520.098 342.58C520.352 342.327 520.696 342.184 521.054 342.184H544.937C545.296 342.184 545.64 342.327 545.893 342.58C546.147 342.834 546.289 343.178 546.289 343.536C546.289 343.895 546.147 344.239 545.893 344.492C545.64 344.746 545.296 344.888 544.937 344.888Z" fill="black"/>
<path d="M479.284 308.087C479.359 309.7 480.053 311.223 481.221 312.338C482.389 313.453 483.942 314.076 485.557 314.076C487.172 314.076 488.725 313.453 489.894 312.338C491.062 311.223 491.756 309.7 491.83 308.087C491.83 308.087 504.729 305.971 504.904 324.48H498.543V349.384H472.017V324.48H464.655C464.655 324.48 465.007 306.708 479.284 308.087Z" fill="#C7B8F8"/>
<path d="M452.575 505.75C452.339 505.755 452.105 505.697 451.899 505.581L431.788 494.481C431.49 494.3 431.272 494.011 431.182 493.673C431.091 493.336 431.135 492.976 431.304 492.671C431.472 492.365 431.753 492.136 432.087 492.032C432.42 491.929 432.781 491.958 433.093 492.115L453.204 503.215C453.468 503.36 453.676 503.59 453.794 503.868C453.912 504.146 453.934 504.455 453.856 504.746C453.779 505.037 453.606 505.295 453.365 505.476C453.124 505.658 452.83 505.754 452.528 505.75H452.575Z" fill="black"/>
<path d="M236.769 332.322H74.6577C74.2991 332.322 73.9552 332.179 73.7017 331.926C73.4481 331.672 73.3057 331.328 73.3057 330.97C73.3057 330.611 73.4481 330.267 73.7017 330.014C73.9552 329.76 74.2991 329.618 74.6577 329.618H236.769C237.128 329.618 237.472 329.76 237.725 330.014C237.979 330.267 238.121 330.611 238.121 330.97C238.121 331.328 237.979 331.672 237.725 331.926C237.472 332.179 237.128 332.322 236.769 332.322Z" fill="#F69228"/>
<path d="M186.927 329.016C200.192 329.016 210.946 318.262 210.946 304.998C210.946 291.733 200.192 280.979 186.927 280.979C173.663 280.979 162.909 291.733 162.909 304.998C162.909 318.262 173.663 329.016 186.927 329.016Z" fill="white"/>
<path d="M137.958 331.287H103.428C100.236 331.284 97.176 330.014 94.9189 327.757C92.6618 325.5 91.3923 322.44 91.3887 319.248V269.609C91.3887 266.415 92.6567 263.351 94.9142 261.091C97.1716 258.831 100.234 257.559 103.428 257.556H137.979C141.171 257.559 144.231 258.829 146.488 261.086C148.745 263.343 150.015 266.403 150.018 269.595V319.234C150.018 320.818 149.706 322.385 149.1 323.848C148.494 325.311 147.605 326.64 146.485 327.759C145.366 328.879 144.036 329.766 142.573 330.372C141.11 330.977 139.542 331.288 137.958 331.287ZM103.428 260.26C100.953 260.263 98.5809 261.248 96.8309 262.998C95.081 264.748 94.0962 267.121 94.0927 269.595V319.234C94.0918 320.461 94.3326 321.676 94.8012 322.81C95.2699 323.944 95.9573 324.974 96.8242 325.842C97.6911 326.71 98.7205 327.399 99.8536 327.869C100.987 328.34 102.201 328.582 103.428 328.583H137.979C140.453 328.58 142.826 327.595 144.576 325.845C146.326 324.095 147.311 321.723 147.314 319.248V269.609C147.314 268.381 147.072 267.164 146.602 266.03C146.132 264.895 145.442 263.864 144.573 262.996C143.705 262.128 142.673 261.439 141.538 260.97C140.403 260.5 139.187 260.259 137.958 260.26H103.428Z" fill="#F69228"/>
<path d="M147.929 313.454H92.7202C92.3616 313.454 92.0177 313.312 91.7642 313.058C91.5106 312.805 91.3682 312.461 91.3682 312.102C91.3682 311.744 91.5106 311.4 91.7642 311.146C92.0177 310.893 92.3616 310.75 92.7202 310.75H147.929C148.288 310.75 148.632 310.893 148.885 311.146C149.139 311.4 149.281 311.744 149.281 312.102C149.281 312.461 149.139 312.805 148.885 313.058C148.632 313.312 148.288 313.454 147.929 313.454Z" fill="#F69228"/>
<path d="M114.92 324.832C116.731 324.832 118.199 323.364 118.199 321.553C118.199 319.742 116.731 318.274 114.92 318.274C113.109 318.274 111.642 319.742 111.642 321.553C111.642 323.364 113.109 324.832 114.92 324.832Z" fill="white"/>
<path d="M126.425 324.832C128.236 324.832 129.704 323.364 129.704 321.553C129.704 319.742 128.236 318.274 126.425 318.274C124.614 318.274 123.146 319.742 123.146 321.553C123.146 323.364 124.614 324.832 126.425 324.832Z" fill="white"/>
<path d="M181.892 287.26C181.583 287.259 181.284 287.152 181.044 286.958C180.804 286.764 180.638 286.493 180.573 286.191C177.058 269.967 181.026 258.867 184.974 252.391C189.287 245.354 194.438 242.211 194.634 242.082C194.942 241.898 195.31 241.843 195.658 241.93C196.006 242.016 196.305 242.238 196.49 242.545C196.674 242.853 196.729 243.221 196.643 243.569C196.556 243.917 196.334 244.216 196.027 244.401C195.215 244.895 176.896 256.42 183.183 285.597C183.257 285.946 183.19 286.311 182.996 286.611C182.802 286.911 182.498 287.123 182.148 287.199C182.065 287.227 181.979 287.247 181.892 287.26Z" fill="#F69228"/>
<path d="M212.265 244.036L206.444 242.772C206.397 242.454 206.336 242.096 206.262 241.819L211.345 238.966C212.304 238.32 212.985 237.337 213.253 236.213C213.52 235.088 213.355 233.904 212.789 232.896C212.224 231.887 211.3 231.129 210.201 230.77C209.101 230.412 207.908 230.481 206.857 230.962L201.509 233.964C201.422 234.011 201.354 234.072 201.273 234.126C201.016 233.936 200.752 233.754 200.482 233.585L201.658 228.143C201.915 226.951 201.689 225.705 201.027 224.68C200.366 223.655 199.325 222.935 198.133 222.678C196.941 222.42 195.695 222.647 194.67 223.308C193.645 223.97 192.925 225.011 192.667 226.203L191.491 231.611C191.036 231.672 190.585 231.758 190.139 231.868C190.042 231.687 189.936 231.511 189.821 231.341L186.13 226.46C185.396 225.486 184.305 224.844 183.098 224.675C181.89 224.506 180.665 224.823 179.692 225.557C178.718 226.292 178.076 227.382 177.907 228.59C177.738 229.798 178.055 231.023 178.789 231.996L182.48 236.897C182.48 236.938 182.548 236.965 182.581 237.006C182.453 237.181 182.345 237.364 182.223 237.54L176.592 236.323C175.4 236.066 174.155 236.292 173.129 236.952C172.104 237.613 171.382 238.653 171.123 239.845C170.995 240.435 170.984 241.045 171.092 241.639C171.2 242.234 171.424 242.801 171.751 243.309C172.078 243.817 172.502 244.256 172.998 244.599C173.495 244.943 174.055 245.186 174.645 245.314L180.229 246.524C180.229 246.659 180.263 246.794 180.283 246.929H180.236L174.882 249.931C173.865 250.552 173.128 251.543 172.827 252.696C172.526 253.848 172.683 255.073 173.266 256.112C173.849 257.151 174.812 257.924 175.953 258.268C177.094 258.611 178.324 258.499 179.384 257.955L184.738 254.953C184.778 254.953 184.806 254.899 184.846 254.879C185.276 255.238 185.727 255.57 186.198 255.873L185.029 261.281C184.884 261.878 184.861 262.497 184.96 263.103C185.059 263.709 185.279 264.289 185.605 264.809C185.932 265.329 186.359 265.779 186.862 266.131C187.365 266.484 187.933 266.732 188.533 266.861C189.133 266.991 189.754 266.999 190.357 266.885C190.96 266.771 191.535 266.538 192.047 266.198C192.559 265.859 192.997 265.421 193.337 264.91C193.677 264.398 193.911 263.824 194.026 263.221L195.189 257.813C195.527 257.765 195.865 257.705 196.196 257.63L199.772 262.362C200.115 262.889 200.563 263.339 201.086 263.687C201.61 264.034 202.2 264.27 202.818 264.38C203.437 264.491 204.072 264.474 204.683 264.33C205.295 264.186 205.871 263.918 206.375 263.543C206.88 263.168 207.302 262.694 207.616 262.15C207.93 261.606 208.13 261.003 208.202 260.379C208.274 259.754 208.218 259.122 208.037 258.52C207.855 257.918 207.553 257.36 207.147 256.88L203.97 252.655C204.173 252.378 204.369 252.094 204.551 251.796L210.318 253.047C210.908 253.175 211.518 253.186 212.112 253.078C212.707 252.971 213.274 252.747 213.782 252.42C214.29 252.093 214.729 251.669 215.073 251.172C215.416 250.675 215.659 250.116 215.787 249.525C215.918 248.933 215.931 248.321 215.824 247.725C215.718 247.128 215.495 246.558 215.168 246.048C214.84 245.538 214.415 245.097 213.917 244.752C213.419 244.407 212.857 244.163 212.265 244.036Z" fill="#FFC1EB"/>
<path d="M212.265 244.036L206.444 242.772C206.397 242.454 206.336 242.096 206.262 241.819L211.345 238.966C212.304 238.32 212.985 237.337 213.253 236.213C213.52 235.088 213.355 233.904 212.789 232.896C212.224 231.887 211.3 231.129 210.201 230.77C209.101 230.412 207.908 230.481 206.857 230.962L201.509 233.964C201.422 234.011 201.354 234.072 201.273 234.126C201.016 233.936 200.752 233.754 200.482 233.585L201.658 228.143C201.915 226.951 201.689 225.705 201.027 224.68C200.366 223.655 199.325 222.935 198.133 222.678C196.941 222.42 195.695 222.647 194.67 223.308C193.645 223.97 192.925 225.011 192.667 226.203L191.491 231.611C191.036 231.672 190.585 231.758 190.139 231.868C190.042 231.687 189.936 231.511 189.821 231.341L186.13 226.46C185.396 225.486 184.305 224.844 183.098 224.675C181.89 224.506 180.665 224.823 179.692 225.557C178.718 226.292 178.076 227.382 177.907 228.59C177.738 229.798 178.055 231.023 178.789 231.996L182.48 236.897C182.48 236.938 182.548 236.965 182.581 237.006C182.453 237.181 182.345 237.364 182.223 237.54L176.592 236.323C175.4 236.066 174.155 236.292 173.129 236.952C172.104 237.613 171.382 238.653 171.123 239.845C170.995 240.435 170.984 241.045 171.092 241.639C171.2 242.234 171.424 242.801 171.751 243.309C172.078 243.817 172.502 244.256 172.998 244.599C173.495 244.943 174.055 245.186 174.645 245.314L180.229 246.524C180.229 246.659 180.263 246.794 180.283 246.929H180.236L174.882 249.931C173.865 250.552 173.128 251.543 172.827 252.696C172.526 253.848 172.683 255.073 173.266 256.112C173.849 257.151 174.812 257.924 175.953 258.268C177.094 258.611 178.324 258.499 179.384 257.955L184.738 254.953C184.778 254.953 184.806 254.899 184.846 254.879C185.276 255.238 185.727 255.57 186.198 255.873L185.029 261.281C184.884 261.878 184.861 262.497 184.96 263.103C185.059 263.709 185.279 264.289 185.605 264.809C185.932 265.329 186.359 265.779 186.862 266.131C187.365 266.484 187.933 266.732 188.533 266.861C189.133 266.991 189.754 266.999 190.357 266.885C190.96 266.771 191.535 266.538 192.047 266.198C192.559 265.859 192.997 265.421 193.337 264.91C193.677 264.398 193.911 263.824 194.026 263.221L195.189 257.813C195.527 257.765 195.865 257.705 196.196 257.63L199.772 262.362C200.115 262.889 200.563 263.339 201.086 263.687C201.61 264.034 202.2 264.27 202.818 264.38C203.437 264.491 204.072 264.474 204.683 264.33C205.295 264.186 205.871 263.918 206.375 263.543C206.88 263.168 207.302 262.694 207.616 262.15C207.93 261.606 208.13 261.003 208.202 260.379C208.274 259.754 208.218 259.122 208.037 258.52C207.855 257.918 207.553 257.36 207.147 256.88L203.97 252.655C204.173 252.378 204.369 252.094 204.551 251.796L210.318 253.047C210.908 253.175 211.518 253.186 212.112 253.078C212.707 252.971 213.274 252.747 213.782 252.42C214.29 252.093 214.729 251.669 215.073 251.172C215.416 250.675 215.659 250.116 215.787 249.525C215.918 248.933 215.931 248.321 215.824 247.725C215.718 247.128 215.495 246.558 215.168 246.048C214.84 245.538 214.415 245.097 213.917 244.752C213.419 244.407 212.857 244.163 212.265 244.036Z" fill="#FFC1EB"/>
<path d="M212.265 244.036L206.444 242.772C206.397 242.454 206.336 242.096 206.262 241.819L211.345 238.966C212.304 238.32 212.985 237.337 213.253 236.213C213.52 235.088 213.355 233.904 212.789 232.896C212.224 231.887 211.3 231.129 210.201 230.77C209.101 230.412 207.908 230.481 206.857 230.962L201.509 233.964C201.422 234.011 201.354 234.072 201.273 234.126C201.016 233.936 200.752 233.754 200.482 233.585L201.658 228.143C201.915 226.951 201.689 225.705 201.027 224.68C200.366 223.655 199.325 222.935 198.133 222.678C196.941 222.42 195.695 222.647 194.67 223.308C193.645 223.97 192.925 225.011 192.667 226.203L191.491 231.611C191.036 231.672 190.585 231.758 190.139 231.868C190.042 231.687 189.936 231.511 189.821 231.341L186.13 226.46C185.396 225.486 184.305 224.844 183.098 224.675C181.89 224.506 180.665 224.823 179.692 225.557C178.718 226.292 178.076 227.382 177.907 228.59C177.738 229.798 178.055 231.023 178.789 231.996L182.48 236.897C182.48 236.938 182.548 236.965 182.581 237.006C182.453 237.181 182.345 237.364 182.223 237.54L176.592 236.323C175.4 236.066 174.155 236.292 173.129 236.952C172.104 237.613 171.382 238.653 171.123 239.845C170.995 240.435 170.984 241.045 171.092 241.639C171.2 242.234 171.424 242.801 171.751 243.309C172.078 243.817 172.502 244.256 172.998 244.599C173.495 244.943 174.055 245.186 174.645 245.314L180.229 246.524C180.229 246.659 180.263 246.794 180.283 246.929H180.236L174.882 249.931C173.865 250.552 173.128 251.543 172.827 252.696C172.526 253.848 172.683 255.073 173.266 256.112C173.849 257.151 174.812 257.924 175.953 258.268C177.094 258.611 178.324 258.499 179.384 257.955L184.738 254.953C184.778 254.953 184.806 254.899 184.846 254.879C185.276 255.238 185.727 255.57 186.198 255.873L185.029 261.281C184.884 261.878 184.861 262.497 184.96 263.103C185.059 263.709 185.279 264.289 185.605 264.809C185.932 265.329 186.359 265.779 186.862 266.131C187.365 266.484 187.933 266.732 188.533 266.861C189.133 266.991 189.754 266.999 190.357 266.885C190.96 266.771 191.535 266.538 192.047 266.198C192.559 265.859 192.997 265.421 193.337 264.91C193.677 264.398 193.911 263.824 194.026 263.221L195.189 257.813C195.527 257.765 195.865 257.705 196.196 257.63L199.772 262.362C200.115 262.889 200.563 263.339 201.086 263.687C201.61 264.034 202.2 264.27 202.818 264.38C203.437 264.491 204.072 264.474 204.683 264.33C205.295 264.186 205.871 263.918 206.375 263.543C206.88 263.168 207.302 262.694 207.616 262.15C207.93 261.606 208.13 261.003 208.202 260.379C208.274 259.754 208.218 259.122 208.037 258.52C207.855 257.918 207.553 257.36 207.147 256.88L203.97 252.655C204.173 252.378 204.369 252.094 204.551 251.796L210.318 253.047C210.908 253.175 211.518 253.186 212.112 253.078C212.707 252.971 213.274 252.747 213.782 252.42C214.29 252.093 214.729 251.669 215.073 251.172C215.416 250.675 215.659 250.116 215.787 249.525C215.918 248.933 215.931 248.321 215.824 247.725C215.718 247.128 215.495 246.558 215.168 246.048C214.84 245.538 214.415 245.097 213.917 244.752C213.419 244.407 212.857 244.163 212.265 244.036Z" fill="#FFC1EB"/>
<path d="M212.265 244.036L206.444 242.772C206.397 242.454 206.336 242.096 206.262 241.819L211.345 238.966C212.304 238.32 212.985 237.337 213.253 236.213C213.52 235.088 213.355 233.904 212.789 232.896C212.224 231.887 211.3 231.129 210.201 230.77C209.101 230.412 207.908 230.481 206.857 230.962L201.509 233.964C201.422 234.011 201.354 234.072 201.273 234.126C201.016 233.936 200.752 233.754 200.482 233.585L201.658 228.143C201.915 226.951 201.689 225.705 201.027 224.68C200.366 223.655 199.325 222.935 198.133 222.678C196.941 222.42 195.695 222.647 194.67 223.308C193.645 223.97 192.925 225.011 192.667 226.203L191.491 231.611C191.036 231.672 190.585 231.758 190.139 231.868C190.042 231.687 189.936 231.511 189.821 231.341L186.13 226.46C185.396 225.486 184.305 224.844 183.098 224.675C181.89 224.506 180.665 224.823 179.692 225.557C178.718 226.292 178.076 227.382 177.907 228.59C177.738 229.798 178.055 231.023 178.789 231.996L182.48 236.897C182.48 236.938 182.548 236.965 182.581 237.006C182.453 237.181 182.345 237.364 182.223 237.54L176.592 236.323C175.4 236.066 174.155 236.292 173.129 236.952C172.104 237.613 171.382 238.653 171.123 239.845C170.995 240.435 170.984 241.045 171.092 241.639C171.2 242.234 171.424 242.801 171.751 243.309C172.078 243.817 172.502 244.256 172.998 244.599C173.495 244.943 174.055 245.186 174.645 245.314L180.229 246.524C180.229 246.659 180.263 246.794 180.283 246.929H180.236L174.882 249.931C173.865 250.552 173.128 251.543 172.827 252.696C172.526 253.848 172.683 255.073 173.266 256.112C173.849 257.151 174.812 257.924 175.953 258.268C177.094 258.611 178.324 258.499 179.384 257.955L184.738 254.953C184.778 254.953 184.806 254.899 184.846 254.879C185.276 255.238 185.727 255.57 186.198 255.873L185.029 261.281C184.884 261.878 184.861 262.497 184.96 263.103C185.059 263.709 185.279 264.289 185.605 264.809C185.932 265.329 186.359 265.779 186.862 266.131C187.365 266.484 187.933 266.732 188.533 266.861C189.133 266.991 189.754 266.999 190.357 266.885C190.96 266.771 191.535 266.538 192.047 266.198C192.559 265.859 192.997 265.421 193.337 264.91C193.677 264.398 193.911 263.824 194.026 263.221L195.189 257.813C195.527 257.765 195.865 257.705 196.196 257.63L199.772 262.362C200.115 262.889 200.563 263.339 201.086 263.687C201.61 264.034 202.2 264.27 202.818 264.38C203.437 264.491 204.072 264.474 204.683 264.33C205.295 264.186 205.871 263.918 206.375 263.543C206.88 263.168 207.302 262.694 207.616 262.15C207.93 261.606 208.13 261.003 208.202 260.379C208.274 259.754 208.218 259.122 208.037 258.52C207.855 257.918 207.553 257.36 207.147 256.88L203.97 252.655C204.173 252.378 204.369 252.094 204.551 251.796L210.318 253.047C210.908 253.175 211.518 253.186 212.112 253.078C212.707 252.971 213.274 252.747 213.782 252.42C214.29 252.093 214.729 251.669 215.073 251.172C215.416 250.675 215.659 250.116 215.787 249.525C215.918 248.933 215.931 248.321 215.824 247.725C215.718 247.128 215.495 246.558 215.168 246.048C214.84 245.538 214.415 245.097 213.917 244.752C213.419 244.407 212.857 244.163 212.265 244.036Z" fill="#FFC1EB"/>
<path d="M212.265 244.036L206.444 242.772C206.397 242.454 206.336 242.096 206.262 241.819L211.345 238.966C212.304 238.32 212.985 237.337 213.253 236.213C213.52 235.088 213.355 233.904 212.789 232.896C212.224 231.887 211.3 231.129 210.201 230.77C209.101 230.412 207.908 230.481 206.857 230.962L201.509 233.964C201.422 234.011 201.354 234.072 201.273 234.126C201.016 233.936 200.752 233.754 200.482 233.585L201.658 228.143C201.915 226.951 201.689 225.705 201.027 224.68C200.366 223.655 199.325 222.935 198.133 222.678C196.941 222.42 195.695 222.647 194.67 223.308C193.645 223.97 192.925 225.011 192.667 226.203L191.491 231.611C191.036 231.672 190.585 231.758 190.139 231.868C190.042 231.687 189.936 231.511 189.821 231.341L186.13 226.46C185.396 225.486 184.305 224.844 183.098 224.675C181.89 224.506 180.665 224.823 179.692 225.557C178.718 226.292 178.076 227.382 177.907 228.59C177.738 229.798 178.055 231.023 178.789 231.996L182.48 236.897C182.48 236.938 182.548 236.965 182.581 237.006C182.453 237.181 182.345 237.364 182.223 237.54L176.592 236.323C175.4 236.066 174.155 236.292 173.129 236.952C172.104 237.613 171.382 238.653 171.123 239.845C170.995 240.435 170.984 241.045 171.092 241.639C171.2 242.234 171.424 242.801 171.751 243.309C172.078 243.817 172.502 244.256 172.998 244.599C173.495 244.943 174.055 245.186 174.645 245.314L180.229 246.524C180.229 246.659 180.263 246.794 180.283 246.929H180.236L174.882 249.931C173.865 250.552 173.128 251.543 172.827 252.696C172.526 253.848 172.683 255.073 173.266 256.112C173.849 257.151 174.812 257.924 175.953 258.268C177.094 258.611 178.324 258.499 179.384 257.955L184.738 254.953C184.778 254.953 184.806 254.899 184.846 254.879C185.276 255.238 185.727 255.57 186.198 255.873L185.029 261.281C184.884 261.878 184.861 262.497 184.96 263.103C185.059 263.709 185.279 264.289 185.605 264.809C185.932 265.329 186.359 265.779 186.862 266.131C187.365 266.484 187.933 266.732 188.533 266.861C189.133 266.991 189.754 266.999 190.357 266.885C190.96 266.771 191.535 266.538 192.047 266.198C192.559 265.859 192.997 265.421 193.337 264.91C193.677 264.398 193.911 263.824 194.026 263.221L195.189 257.813C195.527 257.765 195.865 257.705 196.196 257.63L199.772 262.362C200.115 262.889 200.563 263.339 201.086 263.687C201.61 264.034 202.2 264.27 202.818 264.38C203.437 264.491 204.072 264.474 204.683 264.33C205.295 264.186 205.871 263.918 206.375 263.543C206.88 263.168 207.302 262.694 207.616 262.15C207.93 261.606 208.13 261.003 208.202 260.379C208.274 259.754 208.218 259.122 208.037 258.52C207.855 257.918 207.553 257.36 207.147 256.88L203.97 252.655C204.173 252.378 204.369 252.094 204.551 251.796L210.318 253.047C210.908 253.175 211.518 253.186 212.112 253.078C212.707 252.971 213.274 252.747 213.782 252.42C214.29 252.093 214.729 251.669 215.073 251.172C215.416 250.675 215.659 250.116 215.787 249.525C215.918 248.933 215.931 248.321 215.824 247.725C215.718 247.128 215.495 246.558 215.168 246.048C214.84 245.538 214.415 245.097 213.917 244.752C213.419 244.407 212.857 244.163 212.265 244.036Z" fill="#FFC1EB"/>
<path d="M212.265 244.036L206.444 242.772C206.397 242.454 206.336 242.096 206.262 241.819L211.345 238.966C212.304 238.32 212.985 237.337 213.253 236.213C213.52 235.088 213.355 233.904 212.789 232.896C212.224 231.887 211.3 231.129 210.201 230.77C209.101 230.412 207.908 230.481 206.857 230.962L201.509 233.964C201.422 234.011 201.354 234.072 201.273 234.126C201.016 233.936 200.752 233.754 200.482 233.585L201.658 228.143C201.915 226.951 201.689 225.705 201.027 224.68C200.366 223.655 199.325 222.935 198.133 222.678C196.941 222.42 195.695 222.647 194.67 223.308C193.645 223.97 192.925 225.011 192.667 226.203L191.491 231.611C191.036 231.672 190.585 231.758 190.139 231.868C190.042 231.687 189.936 231.511 189.821 231.341L186.13 226.46C185.396 225.486 184.305 224.844 183.098 224.675C181.89 224.506 180.665 224.823 179.692 225.557C178.718 226.292 178.076 227.382 177.907 228.59C177.738 229.798 178.055 231.023 178.789 231.996L182.48 236.897C182.48 236.938 182.548 236.965 182.581 237.006C182.453 237.181 182.345 237.364 182.223 237.54L176.592 236.323C175.4 236.066 174.155 236.292 173.129 236.952C172.104 237.613 171.382 238.653 171.123 239.845C170.995 240.435 170.984 241.045 171.092 241.639C171.2 242.234 171.424 242.801 171.751 243.309C172.078 243.817 172.502 244.256 172.998 244.599C173.495 244.943 174.055 245.186 174.645 245.314L180.229 246.524C180.229 246.659 180.263 246.794 180.283 246.929H180.236L174.882 249.931C173.865 250.552 173.128 251.543 172.827 252.696C172.526 253.848 172.683 255.073 173.266 256.112C173.849 257.151 174.812 257.924 175.953 258.268C177.094 258.611 178.324 258.499 179.384 257.955L184.738 254.953C184.778 254.953 184.806 254.899 184.846 254.879C185.276 255.238 185.727 255.57 186.198 255.873L185.029 261.281C184.884 261.878 184.861 262.497 184.96 263.103C185.059 263.709 185.279 264.289 185.605 264.809C185.932 265.329 186.359 265.779 186.862 266.131C187.365 266.484 187.933 266.732 188.533 266.861C189.133 266.991 189.754 266.999 190.357 266.885C190.96 266.771 191.535 266.538 192.047 266.198C192.559 265.859 192.997 265.421 193.337 264.91C193.677 264.398 193.911 263.824 194.026 263.221L195.189 257.813C195.527 257.765 195.865 257.705 196.196 257.63L199.772 262.362C200.115 262.889 200.563 263.339 201.086 263.687C201.61 264.034 202.2 264.27 202.818 264.38C203.437 264.491 204.072 264.474 204.683 264.33C205.295 264.186 205.871 263.918 206.375 263.543C206.88 263.168 207.302 262.694 207.616 262.15C207.93 261.606 208.13 261.003 208.202 260.379C208.274 259.754 208.218 259.122 208.037 258.52C207.855 257.918 207.553 257.36 207.147 256.88L203.97 252.655C204.173 252.378 204.369 252.094 204.551 251.796L210.318 253.047C210.908 253.175 211.518 253.186 212.112 253.078C212.707 252.971 213.274 252.747 213.782 252.42C214.29 252.093 214.729 251.669 215.073 251.172C215.416 250.675 215.659 250.116 215.787 249.525C215.918 248.933 215.931 248.321 215.824 247.725C215.718 247.128 215.495 246.558 215.168 246.048C214.84 245.538 214.415 245.097 213.917 244.752C213.419 244.407 212.857 244.163 212.265 244.036Z" fill="#FFC1EB"/>
<path d="M212.265 244.036L206.444 242.772C206.397 242.454 206.336 242.096 206.262 241.819L211.345 238.966C212.304 238.32 212.985 237.337 213.253 236.213C213.52 235.088 213.355 233.904 212.789 232.896C212.224 231.887 211.3 231.129 210.201 230.77C209.101 230.412 207.908 230.481 206.857 230.962L201.509 233.964C201.422 234.011 201.354 234.072 201.273 234.126C201.016 233.936 200.752 233.754 200.482 233.585L201.658 228.143C201.915 226.951 201.689 225.705 201.027 224.68C200.366 223.655 199.325 222.935 198.133 222.678C196.941 222.42 195.695 222.647 194.67 223.308C193.645 223.97 192.925 225.011 192.667 226.203L191.491 231.611C191.036 231.672 190.585 231.758 190.139 231.868C190.042 231.687 189.936 231.511 189.821 231.341L186.13 226.46C185.396 225.486 184.305 224.844 183.098 224.675C181.89 224.506 180.665 224.823 179.692 225.557C178.718 226.292 178.076 227.382 177.907 228.59C177.738 229.798 178.055 231.023 178.789 231.996L182.48 236.897C182.48 236.938 182.548 236.965 182.581 237.006C182.453 237.181 182.345 237.364 182.223 237.54L176.592 236.323C175.4 236.066 174.155 236.292 173.129 236.952C172.104 237.613 171.382 238.653 171.123 239.845C170.995 240.435 170.984 241.045 171.092 241.639C171.2 242.234 171.424 242.801 171.751 243.309C172.078 243.817 172.502 244.256 172.998 244.599C173.495 244.943 174.055 245.186 174.645 245.314L180.229 246.524C180.229 246.659 180.263 246.794 180.283 246.929H180.236L174.882 249.931C173.865 250.552 173.128 251.543 172.827 252.696C172.526 253.848 172.683 255.073 173.266 256.112C173.849 257.151 174.812 257.924 175.953 258.268C177.094 258.611 178.324 258.499 179.384 257.955L184.738 254.953C184.778 254.953 184.806 254.899 184.846 254.879C185.276 255.238 185.727 255.57 186.198 255.873L185.029 261.281C184.884 261.878 184.861 262.497 184.96 263.103C185.059 263.709 185.279 264.289 185.605 264.809C185.932 265.329 186.359 265.779 186.862 266.131C187.365 266.484 187.933 266.732 188.533 266.861C189.133 266.991 189.754 266.999 190.357 266.885C190.96 266.771 191.535 266.538 192.047 266.198C192.559 265.859 192.997 265.421 193.337 264.91C193.677 264.398 193.911 263.824 194.026 263.221L195.189 257.813C195.527 257.765 195.865 257.705 196.196 257.63L199.772 262.362C200.115 262.889 200.563 263.339 201.086 263.687C201.61 264.034 202.2 264.27 202.818 264.38C203.437 264.491 204.072 264.474 204.683 264.33C205.295 264.186 205.871 263.918 206.375 263.543C206.88 263.168 207.302 262.694 207.616 262.15C207.93 261.606 208.13 261.003 208.202 260.379C208.274 259.754 208.218 259.122 208.037 258.52C207.855 257.918 207.553 257.36 207.147 256.88L203.97 252.655C204.173 252.378 204.369 252.094 204.551 251.796L210.318 253.047C210.908 253.175 211.518 253.186 212.112 253.078C212.707 252.971 213.274 252.747 213.782 252.42C214.29 252.093 214.729 251.669 215.073 251.172C215.416 250.675 215.659 250.116 215.787 249.525C215.918 248.933 215.931 248.321 215.824 247.725C215.718 247.128 215.495 246.558 215.168 246.048C214.84 245.538 214.415 245.097 213.917 244.752C213.419 244.407 212.857 244.163 212.265 244.036Z" fill="#FFC1EB"/>
<path d="M193.458 250.816C196.822 250.816 199.549 248.089 199.549 244.726C199.549 241.362 196.822 238.635 193.458 238.635C190.094 238.635 187.367 241.362 187.367 244.726C187.367 248.089 190.094 250.816 193.458 250.816Z" fill="white"/>
<path d="M183.112 292.616C186.332 292.067 188.58 289.492 188.131 286.864C187.683 284.236 184.709 282.551 181.489 283.101C178.269 283.65 176.022 286.225 176.47 288.853C176.918 291.481 179.892 293.166 183.112 292.616Z" fill="#F69228"/>
<path d="M175.037 324.933C174.745 324.932 174.461 324.835 174.227 324.659C173.994 324.482 173.825 324.235 173.744 323.954C173.663 323.673 173.676 323.374 173.78 323.1C173.884 322.827 174.073 322.595 174.32 322.438C177.738 320.293 181.637 319.034 185.664 318.775C190.649 318.495 195.601 319.743 199.86 322.351C200.159 322.541 200.372 322.841 200.453 323.187C200.533 323.533 200.474 323.896 200.288 324.199C200.103 324.501 199.806 324.719 199.461 324.804C199.117 324.89 198.752 324.837 198.447 324.656C194.66 322.34 190.258 321.231 185.826 321.479C182.253 321.708 178.793 322.826 175.76 324.73C175.542 324.863 175.292 324.933 175.037 324.933Z" fill="#F69228"/>
<g clip-path="url(#clip0_74_1016)">
<path d="M454.059 189H452.726C452.173 189 451.726 189.448 451.726 190C451.726 190.552 452.173 191 452.726 191H453.059V249H452.726C452.173 249 451.726 249.448 451.726 250C451.726 250.552 452.173 251 452.726 251H454.059C454.611 251 455.059 250.552 455.059 250V190C455.059 189.448 454.611 189 454.059 189Z" fill="#F69228"/>
<path d="M442.059 207.667H414.609C414.057 207.667 413.609 208.114 413.609 208.667C413.609 209.219 414.057 209.667 414.609 209.667H442.059C442.612 209.667 443.059 209.219 443.059 208.667C443.059 208.114 442.612 207.667 442.059 207.667Z" fill="#F69228"/>
<path d="M442.059 223.667H414.609C414.057 223.667 413.609 224.114 413.609 224.667C413.609 225.219 414.057 225.667 414.609 225.667H442.059C442.612 225.667 443.059 225.219 443.059 224.667C443.059 224.114 442.612 223.667 442.059 223.667Z" fill="#F69228"/>
<path d="M442.059 229H431.001C430.449 229 430.001 229.448 430.001 230C430.001 230.552 430.449 231 431.001 231H442.059C442.612 231 443.059 230.552 443.059 230C443.059 229.448 442.612 229 442.059 229Z" fill="#F69228"/>
<path d="M448.726 189H417.276C417.242 189 417.209 189.002 417.176 189.005C417.151 189.008 417.127 189.012 417.103 189.016C417.095 189.017 417.087 189.018 417.079 189.02C417.05 189.025 417.022 189.033 416.995 189.041C416.991 189.042 416.988 189.043 416.984 189.044C416.956 189.052 416.929 189.062 416.901 189.073C416.898 189.075 416.895 189.075 416.893 189.077C416.867 189.087 416.841 189.099 416.817 189.112C416.813 189.115 416.808 189.116 416.804 189.118C416.781 189.131 416.759 189.145 416.737 189.159C416.731 189.162 416.725 189.165 416.72 189.169C416.699 189.183 416.68 189.198 416.661 189.213C416.654 189.218 416.647 189.222 416.641 189.227C416.618 189.246 416.596 189.266 416.575 189.287C416.573 189.289 416.571 189.291 416.569 189.293L407.235 198.626C407.233 198.629 407.231 198.632 407.229 198.634C407.208 198.655 407.188 198.676 407.17 198.699C407.164 198.706 407.159 198.714 407.153 198.721C407.139 198.739 407.125 198.758 407.111 198.777C407.107 198.784 407.103 198.791 407.099 198.798C407.086 198.819 407.073 198.84 407.061 198.862C407.058 198.867 407.056 198.872 407.054 198.877C407.041 198.901 407.029 198.925 407.019 198.95C407.017 198.954 407.016 198.957 407.015 198.961C407.004 198.988 406.994 199.015 406.986 199.042C406.985 199.046 406.984 199.049 406.983 199.053C406.975 199.081 406.968 199.108 406.962 199.137C406.96 199.145 406.96 199.153 406.958 199.161C406.954 199.185 406.95 199.209 406.947 199.234C406.944 199.267 406.942 199.3 406.942 199.334V250C406.942 250.553 407.39 251 407.942 251H448.725C449.278 251 449.725 250.553 449.725 250V190C449.726 189.448 449.278 189 448.726 189ZM416.276 192.414V198.333H410.357L416.276 192.414ZM447.726 249H408.942V200.333H417.276C417.828 200.333 418.276 199.886 418.276 199.333V191H447.725V249H447.726Z" fill="#F69228"/>
<path d="M421.275 200.333H442.058C442.611 200.333 443.058 199.886 443.058 199.333C443.058 198.781 442.611 198.333 442.058 198.333H421.275C420.723 198.333 420.275 198.781 420.275 199.333C420.275 199.886 420.723 200.333 421.275 200.333Z" fill="#F69228"/>
<path d="M442.059 213H431.001C430.449 213 430.001 213.448 430.001 214C430.001 214.552 430.449 215 431.001 215H442.059C442.612 215 443.059 214.552 443.059 214C443.059 213.448 442.612 213 442.059 213Z" fill="#F69228"/>
<path d="M442.059 218.333H431.001C430.449 218.333 430.001 218.781 430.001 219.333C430.001 219.886 430.449 220.333 431.001 220.333H442.059C442.612 220.333 443.059 219.886 443.059 219.333C443.059 218.781 442.612 218.333 442.059 218.333Z" fill="#F69228"/>
<path d="M425.668 231C426.22 231 426.668 230.552 426.668 230C426.668 229.448 426.22 229 425.668 229H414.609C414.057 229 413.609 229.448 413.609 230V240.667C413.609 241.219 414.057 241.667 414.609 241.667H425.668C426.22 241.667 426.668 241.219 426.668 240.667V234C426.668 233.448 426.22 233 425.668 233C425.115 233 424.668 233.448 424.668 234V239.667H415.609V231H425.668Z" fill="#F69228"/>
<path d="M414.609 220.333H425.668C426.22 220.333 426.668 219.886 426.668 219.333C426.668 218.781 426.22 218.333 425.668 218.333H414.609C414.057 218.333 413.609 218.781 413.609 219.333C413.609 219.886 414.057 220.333 414.609 220.333Z" fill="#F69228"/>
<path d="M435.393 239.667H431.001C430.449 239.667 430.001 240.114 430.001 240.667C430.001 241.219 430.449 241.667 431.001 241.667H435.393C435.945 241.667 436.393 241.219 436.393 240.667C436.393 240.114 435.945 239.667 435.393 239.667Z" fill="#F69228"/>
<path d="M442.059 234.333H431.001C430.449 234.333 430.001 234.781 430.001 235.333C430.001 235.886 430.449 236.333 431.001 236.333H442.059C442.612 236.333 443.059 235.886 443.059 235.333C443.059 234.781 442.612 234.333 442.059 234.333Z" fill="#F69228"/>
<path d="M414.609 215H425.668C426.22 215 426.668 214.552 426.668 214C426.668 213.448 426.22 213 425.668 213H414.609C414.057 213 413.609 213.448 413.609 214C413.609 214.552 414.057 215 414.609 215Z" fill="#F69228"/>
</g>
<defs>
<clipPath id="clip0_74_1016">
<rect width="62" height="62" fill="white" transform="translate(400 189)"/>
</clipPath>
</defs>
</svg>
