<svg width="659" height="493" viewBox="0 0 659 493" fill="none" xmlns="http://www.w3.org/2000/svg">
<g filter="url(#filter0_i_49_609)">
<g clip-path="url(#clip0_49_609)">
<path d="M541.33 96.4929H126.226C121.854 96.4929 118.311 99.8237 118.311 103.932V400.678C118.311 404.787 121.854 408.117 126.226 408.117H541.33C545.701 408.117 549.245 404.787 549.245 400.678V103.932C549.245 99.8237 545.701 96.4929 541.33 96.4929Z" fill="#F69228" stroke="#070707" stroke-width="1.27938" stroke-linecap="round" stroke-linejoin="round"/>
<path d="M118.311 119.842H549.245" stroke="#070707" stroke-width="1.27938" stroke-linecap="round" stroke-linejoin="round"/>
<path d="M172.064 106.109H168.345C167.11 106.109 166.108 107.05 166.108 108.212V111.707C166.108 112.868 167.11 113.809 168.345 113.809H172.064C173.299 113.809 174.301 112.868 174.301 111.707V108.212C174.301 107.05 173.299 106.109 172.064 106.109Z" fill="#1C0E0C"/>
<path d="M158.089 106.109H154.371C153.135 106.109 152.134 107.05 152.134 108.212V111.707C152.134 112.868 153.135 113.809 154.371 113.809H158.089C159.325 113.809 160.326 112.868 160.326 111.707V108.212C160.326 107.05 159.325 106.109 158.089 106.109Z" fill="#1C0E0C"/>
<path d="M144.116 106.109H140.397C139.162 106.109 138.16 107.05 138.16 108.212V111.707C138.16 112.868 139.162 113.809 140.397 113.809H144.116C145.351 113.809 146.352 112.868 146.352 111.707V108.212C146.352 107.05 145.351 106.109 144.116 106.109Z" fill="#1C0E0C"/>
<path d="M170.375 104.696H166.657C165.421 104.696 164.42 105.637 164.42 106.798V110.294C164.42 111.455 165.421 112.396 166.657 112.396H170.375C171.611 112.396 172.612 111.455 172.612 110.294V106.798C172.612 105.637 171.611 104.696 170.375 104.696Z" fill="#C5DCDD" stroke="black" stroke-width="1.27938" stroke-linecap="round" stroke-linejoin="round"/>
<path d="M156.401 104.696H152.682C151.447 104.696 150.445 105.637 150.445 106.798V110.294C150.445 111.455 151.447 112.396 152.682 112.396H156.401C157.636 112.396 158.638 111.455 158.638 110.294V106.798C158.638 105.637 157.636 104.696 156.401 104.696Z" fill="#FFBF00" stroke="black" stroke-width="1.27938" stroke-linecap="round" stroke-linejoin="round"/>
<path d="M142.424 104.696H138.706C137.47 104.696 136.469 105.637 136.469 106.798V110.294C136.469 111.455 137.47 112.396 138.706 112.396H142.424C143.66 112.396 144.661 111.455 144.661 110.294V106.798C144.661 105.637 143.66 104.696 142.424 104.696Z" fill="#F46F40" stroke="black" stroke-width="1.27938" stroke-linecap="round" stroke-linejoin="round"/>
<path d="M75.8926 379.638C77.491 378.143 79.6546 377.303 81.9099 377.303C84.1653 377.303 86.3289 378.143 87.9273 379.638C89.5258 381.134 91.6898 381.974 93.9457 381.974C96.2016 381.974 98.3657 381.134 99.9642 379.638L100.847 378.812C102.445 377.317 104.609 376.477 106.864 376.477C109.12 376.477 111.283 377.317 112.882 378.812L114.195 380.041C115.794 381.537 117.957 382.376 120.213 382.376C122.468 382.376 124.631 381.537 126.23 380.041L127.313 379.027C128.912 377.531 131.076 376.691 133.332 376.691C135.587 376.691 137.751 377.531 139.35 379.027" stroke="#070707" stroke-width="1.27938" stroke-linecap="round" stroke-linejoin="round"/>
<path d="M127.311 379.057C128.909 377.561 131.073 376.721 133.329 376.721C135.585 376.721 137.749 377.561 139.347 379.057L140.571 380.203C142.17 381.7 144.334 382.54 146.59 382.54C148.846 382.54 151.01 381.7 152.608 380.203L153.355 379.506C154.953 378.01 157.116 377.171 159.372 377.171C161.627 377.171 163.791 378.01 165.389 379.506C166.988 381.002 169.152 381.842 171.408 381.842C173.664 381.842 175.828 381.002 177.426 379.506L178.307 378.678C179.905 377.182 182.069 376.342 184.325 376.342C186.581 376.342 188.745 377.182 190.344 378.678L191.657 379.909C193.256 381.404 195.419 382.244 197.674 382.244C199.93 382.244 202.093 381.404 203.692 379.909L204.775 378.893C206.374 377.396 208.538 376.556 210.793 376.556C213.049 376.556 215.213 377.396 216.812 378.893" stroke="#070707" stroke-width="1.27938" stroke-linecap="round" stroke-linejoin="round"/>
<path d="M75.8926 385.835C77.491 384.34 79.6546 383.5 81.9099 383.5C84.1653 383.5 86.3289 384.34 87.9273 385.835C89.5258 387.331 91.6898 388.171 93.9457 388.171C96.2016 388.171 98.3657 387.331 99.9642 385.835L100.858 385.001C102.456 383.506 104.62 382.666 106.875 382.666C109.13 382.666 111.294 383.506 112.892 385.001L114.206 386.23C115.804 387.726 117.968 388.565 120.223 388.565C122.479 388.565 124.642 387.726 126.241 386.23L127.324 385.216C128.922 383.72 131.086 382.88 133.342 382.88C135.598 382.88 137.762 383.72 139.361 385.216" stroke="#070707" stroke-width="1.27938" stroke-linecap="round" stroke-linejoin="round"/>
<path d="M127.311 385.254C128.909 383.758 131.073 382.918 133.329 382.918C135.585 382.918 137.749 383.758 139.347 385.254L140.571 386.4C142.17 387.897 144.334 388.737 146.59 388.737C148.846 388.737 151.01 387.897 152.608 386.4L153.355 385.703C154.953 384.207 157.116 383.368 159.372 383.368C161.627 383.368 163.791 384.207 165.389 385.703C166.988 387.199 169.152 388.039 171.408 388.039C173.664 388.039 175.828 387.199 177.426 385.703L178.307 384.875C179.905 383.379 182.069 382.539 184.325 382.539C186.581 382.539 188.745 383.379 190.344 384.875L191.657 386.106C193.256 387.601 195.419 388.441 197.674 388.441C199.93 388.441 202.093 387.601 203.692 386.106L204.775 385.09C206.374 383.594 208.538 382.754 210.793 382.754C213.049 382.754 215.213 383.594 216.812 385.09" stroke="#070707" stroke-width="1.27938" stroke-linecap="round" stroke-linejoin="round"/>
<path d="M437.314 158.235C439.129 158.235 440.6 156.853 440.6 155.147C440.6 153.441 439.129 152.059 437.314 152.059C435.499 152.059 434.028 153.441 434.028 155.147C434.028 156.853 435.499 158.235 437.314 158.235Z" stroke="#070707" stroke-width="1.27938" stroke-linecap="round" stroke-linejoin="round"/>
<path d="M424.11 148.854C426.704 148.854 428.806 146.878 428.806 144.441C428.806 142.003 426.704 140.028 424.11 140.028C421.517 140.028 419.415 142.003 419.415 144.441C419.415 146.878 421.517 148.854 424.11 148.854Z" fill="#EFAF00" stroke="black" stroke-width="1.27938" stroke-linecap="round" stroke-linejoin="round"/>
<path d="M343.354 376.343C340.898 376.343 338.906 378.147 338.906 380.386V414.188C338.906 420.978 344.962 426.482 352.429 426.482H375.224C379.663 426.482 383.26 429.752 383.26 433.789" stroke="#070707" stroke-width="1.27938" stroke-linecap="round" stroke-linejoin="round"/>
<path d="M329.429 376.343C331.883 376.343 333.875 378.147 333.875 380.386V414.188C333.875 420.978 327.821 426.482 320.351 426.482H297.557C293.12 426.482 289.521 429.752 289.521 433.789" stroke="#070707" stroke-width="1.27938" stroke-linecap="round" stroke-linejoin="round"/>
<path d="M336.39 372.984C395.739 372.984 443.85 330.205 443.85 277.433C443.85 224.662 395.739 181.883 336.39 181.883C277.042 181.883 228.931 224.662 228.931 277.433C228.931 330.205 277.042 372.984 336.39 372.984Z" fill="#F4F1ED" stroke="#070707" stroke-width="1.27938" stroke-linecap="round" stroke-linejoin="round"/>
<path d="M336.39 355.919C388.982 355.919 431.616 318.009 431.616 271.245C431.616 224.48 388.982 186.57 336.39 186.57C283.797 186.57 241.163 224.48 241.163 271.245C241.163 318.009 283.797 355.919 336.39 355.919Z" fill="#EAE5DF"/>
<path d="M401.57 322.888C405.557 323.447 407.114 328.065 404.205 330.688C386.934 346.263 362.93 355.919 336.398 355.919C309.902 355.919 285.933 346.299 268.672 330.771C265.759 328.151 267.311 323.531 271.297 322.968C291.317 320.13 313.446 318.559 336.714 318.559C359.76 318.557 381.695 320.1 401.57 322.888Z" fill="#FFFBF8" stroke="#070707" stroke-width="1.27938" stroke-linecap="round" stroke-linejoin="round"/>
<path d="M289.661 449.249C294.203 449.249 297.885 445.788 297.885 441.519C297.885 437.249 294.203 433.789 289.661 433.789C285.119 433.789 281.437 437.249 281.437 441.519C281.437 445.788 285.119 449.249 289.661 449.249Z" stroke="#070707" stroke-width="1.27938" stroke-linecap="round" stroke-linejoin="round"/>
<path d="M336.795 449.249C341.337 449.249 345.019 445.788 345.019 441.519C345.019 437.249 341.337 433.789 336.795 433.789C332.252 433.789 328.57 437.249 328.57 441.519C328.57 445.788 332.252 449.249 336.795 449.249Z" stroke="#070707" stroke-width="1.27938" stroke-linecap="round" stroke-linejoin="round"/>
<path d="M383.365 449.249C387.907 449.249 391.589 445.788 391.589 441.519C391.589 437.249 387.907 433.789 383.365 433.789C378.823 433.789 375.141 437.249 375.141 441.519C375.141 445.788 378.823 449.249 383.365 449.249Z" stroke="#070707" stroke-width="1.27938" stroke-linecap="round" stroke-linejoin="round"/>
<path d="M513.97 310.507C502.555 326.74 481.042 335.627 471.537 330.602C462.349 325.744 461.547 301.815 472.963 285.571C484.38 269.327 503.455 261.739 514.554 268.626C525.652 275.512 525.386 294.261 513.97 310.507Z" fill="#EFAF00" stroke="black" stroke-width="1.27938" stroke-linecap="round" stroke-linejoin="round"/>
<path d="M472.807 385.328C472.807 385.328 461.31 297.664 514.472 269.022" stroke="#070707" stroke-width="1.27938" stroke-linecap="round" stroke-linejoin="round"/>
<path d="M522.001 288.585L490.166 291.639" stroke="#070707" stroke-width="1.27938" stroke-linecap="round" stroke-linejoin="round"/>
<path d="M521.567 291.744L488.156 294.948" stroke="#070707" stroke-width="1.27938" stroke-linecap="round" stroke-linejoin="round"/>
<path d="M473.343 285.747L481.433 308.218" stroke="#070707" stroke-width="1.27938" stroke-linecap="round" stroke-linejoin="round"/>
<path d="M556.168 355.286C552.639 363.844 537.171 366.191 521.624 360.525C506.078 354.859 500.077 343.606 500.758 339.866C501.611 335.152 519.965 327.103 534.408 329.53C550.82 332.292 559.699 346.722 556.168 355.286Z" fill="#EFAF00" stroke="black" stroke-width="1.27938" stroke-linecap="round" stroke-linejoin="round"/>
<path d="M463.299 385.328C463.299 385.328 461.905 346.82 505.171 338.916C528.861 334.589 547.178 345.778 555.587 355.266" stroke="#070707" stroke-width="1.27938" stroke-linecap="round" stroke-linejoin="round"/>
<path d="M528.82 339.519L543.593 333.156" stroke="#070707" stroke-width="1.27938" stroke-linecap="round" stroke-linejoin="round"/>
<path d="M532.508 340.623L546.265 334.573" stroke="#070707" stroke-width="1.27938" stroke-linecap="round" stroke-linejoin="round"/>
<path d="M522.707 338.403L528.464 361.986" stroke="#070707" stroke-width="1.27938" stroke-linecap="round" stroke-linejoin="round"/>
<path d="M454.63 328.115C461.651 338.076 460.551 352.183 454.843 355.462C451.38 357.452 436.821 353.859 429.801 343.894C422.782 333.929 422.805 321.981 429.605 317.746C436.405 313.511 447.61 318.155 454.63 328.115Z" fill="#EFAF00" stroke="black" stroke-width="1.27938" stroke-linecap="round" stroke-linejoin="round"/>
<path d="M458.127 385.328C458.127 385.328 462.071 335.527 429.81 318.263" stroke="#070707" stroke-width="1.27938" stroke-linecap="round" stroke-linejoin="round"/>
<path d="M425.318 332.803H445.673" stroke="#070707" stroke-width="1.27938" stroke-linecap="round" stroke-linejoin="round"/>
<path d="M426.345 336.112H447.685" stroke="#070707" stroke-width="1.27938" stroke-linecap="round" stroke-linejoin="round"/>
<path d="M455.114 329.488L451.455 343.207" stroke="#070707" stroke-width="1.27938" stroke-linecap="round" stroke-linejoin="round"/>
<path d="M494.83 393.832V428.464C494.831 429.581 494.598 430.687 494.143 431.72C493.689 432.752 493.022 433.69 492.182 434.48C491.341 435.27 490.343 435.896 489.245 436.323C488.146 436.75 486.969 436.969 485.78 436.968H448.936C447.748 436.969 446.571 436.749 445.472 436.322C444.374 435.896 443.376 435.269 442.535 434.479C441.695 433.69 441.028 432.752 440.574 431.72C440.119 430.687 439.886 429.581 439.887 428.464V393.832C439.888 391.577 440.842 389.414 442.539 387.82C444.236 386.225 446.537 385.329 448.936 385.328H485.78C488.18 385.329 490.481 386.225 492.178 387.819C493.875 389.414 494.829 391.576 494.83 393.832Z" fill="#133985" stroke="#070707" stroke-width="1.27938" stroke-linecap="round" stroke-linejoin="round"/>
<path d="M486.064 385.328H448.651C443.81 385.328 439.887 389.016 439.887 393.565V428.73C439.887 433.28 443.81 436.968 448.651 436.968H486.064C490.904 436.968 494.828 433.28 494.828 428.73V393.565C494.828 389.016 490.904 385.328 486.064 385.328Z" stroke="#FFC3D5" stroke-width="1.27938" stroke-miterlimit="10"/>
<path d="M494.83 393.832V428.464C494.831 429.581 494.598 430.687 494.143 431.72C493.689 432.752 493.022 433.69 492.182 434.48C491.341 435.27 490.343 435.896 489.245 436.323C488.146 436.75 486.969 436.969 485.78 436.968H448.936C447.748 436.969 446.571 436.749 445.472 436.322C444.374 435.896 443.376 435.269 442.535 434.479C441.695 433.69 441.028 432.752 440.574 431.72C440.119 430.687 439.886 429.581 439.887 428.464V393.832C439.888 391.577 440.842 389.414 442.539 387.82C444.236 386.225 446.537 385.329 448.936 385.328H485.78C488.18 385.329 490.481 386.225 492.178 387.819C493.875 389.414 494.829 391.576 494.83 393.832Z" stroke="#070707" stroke-width="1.27938" stroke-linecap="round" stroke-linejoin="round"/>
<path d="M364.152 297.466V297.648H363.399V297.466H364.152ZM363.625 298.862V297.274C363.625 297.194 363.644 297.127 363.681 297.074C363.719 297.021 363.767 296.981 363.827 296.954C363.887 296.927 363.951 296.914 364.017 296.914C364.07 296.914 364.113 296.918 364.146 296.927C364.18 296.935 364.204 296.943 364.221 296.95L364.159 297.136C364.148 297.132 364.133 297.127 364.114 297.122C364.095 297.117 364.07 297.114 364.039 297.114C363.968 297.114 363.917 297.132 363.886 297.167C363.855 297.203 363.839 297.256 363.839 297.325V298.862H363.625ZM364.823 298.895C364.735 298.895 364.654 298.878 364.582 298.845C364.51 298.811 364.453 298.762 364.411 298.699C364.368 298.634 364.347 298.557 364.347 298.466C364.347 298.386 364.363 298.321 364.394 298.271C364.426 298.221 364.468 298.182 364.52 298.153C364.573 298.125 364.631 298.104 364.695 298.09C364.759 298.075 364.824 298.064 364.888 298.055C364.973 298.044 365.042 298.036 365.095 298.031C365.148 298.025 365.187 298.015 365.211 298.001C365.236 297.987 365.248 297.962 365.248 297.928V297.921C365.248 297.831 365.224 297.761 365.175 297.712C365.126 297.662 365.053 297.637 364.954 297.637C364.852 297.637 364.771 297.66 364.713 297.704C364.655 297.749 364.614 297.797 364.59 297.848L364.387 297.775C364.423 297.691 364.472 297.624 364.532 297.577C364.593 297.529 364.66 297.496 364.732 297.477C364.805 297.458 364.876 297.448 364.947 297.448C364.991 297.448 365.043 297.454 365.101 297.465C365.16 297.475 365.216 297.496 365.271 297.529C365.326 297.562 365.372 297.611 365.408 297.677C365.445 297.743 365.463 297.832 365.463 297.943V298.862H365.248V298.673H365.237C365.223 298.703 365.199 298.736 365.165 298.77C365.131 298.805 365.086 298.834 365.029 298.858C364.973 298.883 364.904 298.895 364.823 298.895ZM364.856 298.702C364.941 298.702 365.012 298.685 365.07 298.652C365.129 298.619 365.173 298.576 365.203 298.523C365.233 298.47 365.248 298.415 365.248 298.357V298.161C365.239 298.171 365.219 298.181 365.188 298.191C365.158 298.199 365.123 298.207 365.083 298.213C365.044 298.219 365.005 298.225 364.968 298.23C364.931 298.234 364.901 298.238 364.878 298.241C364.822 298.248 364.77 298.26 364.721 298.276C364.673 298.292 364.635 298.316 364.605 298.348C364.576 298.379 364.561 298.422 364.561 298.477C364.561 298.551 364.589 298.608 364.644 298.646C364.7 298.683 364.77 298.702 364.856 298.702ZM366.476 297.466V297.648H365.723V297.466H366.476ZM365.949 298.862V297.274C365.949 297.194 365.967 297.127 366.005 297.074C366.043 297.021 366.091 296.981 366.151 296.954C366.211 296.927 366.275 296.914 366.341 296.914C366.394 296.914 366.437 296.918 366.47 296.927C366.504 296.935 366.528 296.943 366.545 296.95L366.483 297.136C366.472 297.132 366.457 297.127 366.437 297.122C366.419 297.117 366.394 297.114 366.363 297.114C366.292 297.114 366.241 297.132 366.209 297.167C366.179 297.203 366.163 297.256 366.163 297.325V298.862H365.949ZM367.365 296.976C367.441 296.976 367.518 296.991 367.594 297.019C367.67 297.048 367.74 297.095 367.803 297.161C367.866 297.226 367.917 297.316 367.955 297.429C367.993 297.542 368.012 297.684 368.012 297.855C368.012 298.021 367.996 298.168 367.965 298.296C367.934 298.424 367.889 298.532 367.83 298.619C367.772 298.707 367.701 298.774 367.618 298.819C367.535 298.865 367.441 298.888 367.336 298.888C367.232 298.888 367.139 298.867 367.057 298.826C366.976 298.784 366.909 298.726 366.857 298.652C366.806 298.578 366.773 298.491 366.758 298.393H366.98C367 298.479 367.039 298.549 367.099 298.605C367.159 298.66 367.238 298.688 367.336 298.688C367.479 298.688 367.593 298.625 367.676 298.5C367.759 298.374 367.801 298.197 367.801 297.968H367.787C367.753 298.019 367.712 298.063 367.666 298.1C367.619 298.137 367.567 298.165 367.51 298.185C367.453 298.205 367.393 298.215 367.329 298.215C367.222 298.215 367.124 298.189 367.035 298.136C366.947 298.083 366.876 298.01 366.823 297.917C366.77 297.824 366.743 297.717 366.743 297.597C366.743 297.483 366.769 297.379 366.82 297.285C366.871 297.19 366.943 297.114 367.036 297.057C367.129 297.001 367.239 296.974 367.365 296.976ZM367.365 297.176C367.289 297.176 367.22 297.195 367.159 297.233C367.098 297.27 367.05 297.321 367.014 297.386C366.979 297.449 366.962 297.52 366.962 297.597C366.962 297.675 366.979 297.745 367.012 297.809C367.047 297.872 367.094 297.922 367.153 297.96C367.213 297.997 367.281 298.015 367.358 298.015C367.415 298.015 367.469 298.004 367.519 297.982C367.568 297.959 367.612 297.927 367.648 297.888C367.686 297.848 367.715 297.803 367.737 297.753C367.758 297.702 367.768 297.649 367.768 297.594C367.768 297.521 367.751 297.453 367.716 297.389C367.681 297.326 367.633 297.274 367.572 297.235C367.512 297.195 367.443 297.176 367.365 297.176ZM368.994 297.466V297.648H368.242V297.466H368.994ZM368.467 298.862V297.274C368.467 297.194 368.486 297.127 368.524 297.074C368.561 297.021 368.61 296.981 368.67 296.954C368.73 296.927 368.793 296.914 368.86 296.914C368.913 296.914 368.956 296.918 368.989 296.927C369.022 296.935 369.047 296.943 369.063 296.95L369.002 297.136C368.991 297.132 368.976 297.127 368.956 297.122C368.937 297.117 368.913 297.114 368.882 297.114C368.811 297.114 368.76 297.132 368.728 297.167C368.697 297.203 368.682 297.256 368.682 297.325V298.862H368.467ZM369.349 298.862L370.182 297.216V297.201H369.222V297.001H370.414V297.212L369.586 298.862H369.349Z" fill="black"/>
<path d="M374.177 261.812C374.177 261.812 396.895 297.169 386.544 314.076C376.194 330.983 357.959 337.265 336.393 335.084C281.759 329.563 214.497 290.034 216.193 277.282C218.481 260.074 319.07 279.797 319.07 279.797L328.026 261.984L374.177 261.812Z" fill="#133985" stroke="black" stroke-width="1.27938" stroke-linecap="round" stroke-linejoin="round"/>
<path d="M216.834 275.256C213.797 278.194 191.621 319.059 325.481 348.791L330.507 340.109C330.507 340.109 240.82 252.037 216.834 275.256Z" fill="#133985" stroke="black" stroke-width="1.27938" stroke-linecap="round" stroke-linejoin="round"/>
<path d="M330.69 340.109C330.69 340.109 285.784 296.017 251.025 278.45" stroke="#4B556A" stroke-width="1.27938" stroke-miterlimit="10"/>
<path d="M325.481 348.791C331.665 349.829 357.935 358.365 363.75 357.226C369.565 356.088 360.338 339.87 356.713 339.189C353.088 338.507 335.177 340.405 330.514 340.109C325.85 339.812 325.481 348.791 325.481 348.791Z" fill="#C48270" stroke="#0F0F0F" stroke-width="1.27938" stroke-linecap="round" stroke-linejoin="round"/>
<path d="M357.278 312.451C333.968 358.645 267.57 411.333 267.57 411.333C267.57 411.333 262.553 407.25 256.254 406.998C256.254 406.998 315.668 282.807 349.222 276.783C376.352 271.903 361.195 304.683 357.278 312.451Z" fill="#133985" stroke="black" stroke-width="1.27938" stroke-linecap="round" stroke-linejoin="round"/>
<path d="M256.234 406.703C250.313 415.58 241.152 434.242 235.406 440.714C233.538 442.816 250.029 443.442 252.533 441.57C255.972 438.998 256.234 429.376 263.064 428.142C267.843 427.282 272.632 424.284 270.403 419.955C267.265 413.862 267.721 410.978 267.721 410.978C262.318 405.312 256.234 406.703 256.234 406.703Z" fill="#C48270" stroke="#0F0F0F" stroke-width="1.27938" stroke-linecap="round" stroke-linejoin="round"/>
<path d="M329.799 195.275C340.701 212.013 326.353 250.79 319.751 256.582C307.525 267.322 254.228 265.801 254.228 265.801L252.063 261.192C252.063 261.192 281.436 246.138 304.876 244.944C304.876 244.944 311.13 214.729 313.205 206.063C315.819 195.142 322.274 183.72 329.799 195.275Z" fill="#C48270" stroke="#0F0F0F" stroke-width="1.27938" stroke-linecap="round" stroke-linejoin="round"/>
<path d="M258.072 261.593C256.897 258.827 246.835 260.558 242.837 262.304C239.436 263.789 235.322 267.775 234.651 268.619C233.979 269.463 232.484 273.724 232.484 273.724C232.484 273.724 233.932 275.163 235.883 272.654C237.834 270.144 242.894 267.27 244.15 267.9C246.973 269.317 240.133 269.874 239.385 270.892C238.636 271.91 238.992 272.515 238.992 272.515C238.992 272.515 245.421 272.241 246.455 272.114C247.489 271.988 251.588 270.245 253.592 268.665C255.596 267.086 258.806 263.316 258.072 261.593Z" fill="#E38E32"/>
<path d="M373.154 185.147C376.455 186.067 386.801 189.687 386.801 189.687C386.801 189.687 385.924 213.188 382.99 218.747C370.7 242.04 374.525 263.5 374.525 263.5C374.525 263.5 345.419 268.054 327.614 263.663C327.614 263.663 329.943 245.942 326.139 243.821C322.335 241.701 316.104 236.937 317.823 227.345C319.541 217.753 319.149 192.599 321.234 190.973C323.32 189.348 332.536 185.119 334.915 185.127C337.295 185.135 373.154 185.147 373.154 185.147Z" fill="#133985" stroke="#070707" stroke-width="1.27938" stroke-linecap="round" stroke-linejoin="round"/>
<path d="M282.302 232.6H217.129C216.41 232.6 215.703 232.763 215.066 233.076C214.429 233.388 213.882 233.84 213.471 234.394C213.06 234.948 212.798 235.587 212.706 236.257C212.615 236.926 212.697 237.607 212.945 238.24L229.364 280.205H305.683L288.693 236.795C288.211 235.566 287.34 234.506 286.198 233.756C285.055 233.006 283.696 232.603 282.302 232.6Z" fill="#F9A09B" stroke="black" stroke-width="1.27938" stroke-linecap="round" stroke-linejoin="round"/>
<path d="M281.021 234.729H217.478C216.778 234.729 216.088 234.888 215.467 235.193C214.846 235.497 214.313 235.938 213.912 236.478C213.511 237.018 213.255 237.641 213.166 238.294C213.076 238.947 213.155 239.61 213.397 240.228L229.415 281.149H303.832L287.264 238.819C286.794 237.619 285.943 236.583 284.827 235.852C283.71 235.12 282.382 234.728 281.021 234.729Z" fill="#F9A09B" stroke="black" stroke-width="1.27938" stroke-linecap="round" stroke-linejoin="round"/>
<path d="M229.404 280.342H337.331C338.552 280.342 339.724 280.798 340.588 281.61C341.451 282.422 341.937 283.523 341.937 284.671V285.625H234.01C232.789 285.625 231.617 285.169 230.753 284.357C229.89 283.545 229.404 282.444 229.404 281.296V280.342Z" fill="#032C7D" stroke="black" stroke-width="1.27938" stroke-linecap="round" stroke-linejoin="round"/>
<path d="M282.302 232.6H217.129C216.41 232.6 215.703 232.763 215.066 233.076C214.429 233.388 213.882 233.84 213.471 234.394C213.06 234.948 212.798 235.587 212.706 236.257C212.615 236.926 212.697 237.607 212.945 238.24L229.364 280.205H305.683L288.693 236.795C288.211 235.566 287.34 234.506 286.198 233.756C285.055 233.006 283.696 232.603 282.302 232.6Z" fill="#133985" stroke="black" stroke-width="1.27938" stroke-linecap="round" stroke-linejoin="round"/>
<path d="M259.813 261.605C261.357 259.993 260.895 257.235 258.779 255.445C256.664 253.655 253.697 253.511 252.153 255.123C250.608 256.735 251.071 259.493 253.186 261.283C255.302 263.073 258.268 263.218 259.813 261.605Z" fill="#F46F40" stroke="black" stroke-width="1.27938" stroke-linecap="round" stroke-linejoin="round"/>
<path d="M316.003 282.229H311.442V283.769H316.003V282.229Z" fill="#F9A09B" stroke="black" stroke-width="1.27938" stroke-linecap="round" stroke-linejoin="round"/>
<path d="M324.718 282.229H320.157V283.769H324.718V282.229Z" fill="#F9A09B" stroke="black" stroke-width="1.27938" stroke-linecap="round" stroke-linejoin="round"/>
<path d="M340.668 139.274C340.668 139.274 324.95 132.344 315.21 146.872C305.446 161.434 318.835 167.916 311.841 175.351C304.273 183.4 294.693 188.114 302.459 204.063C310.374 220.327 290.19 214.33 294.554 232.436H328.778C328.778 232.436 343.501 227.592 339.083 215.657C334.665 203.722 325.198 202.071 334.07 191.541C340.734 183.634 371.475 185.246 374.236 185.929C376.998 186.612 388.764 190.396 388.764 190.396C388.764 190.396 393.442 177.239 386.751 169.992C378.284 160.825 364.163 167.587 361.59 156.826C359.85 149.571 356.472 141.146 350.86 139.553C344.83 137.841 340.668 139.274 340.668 139.274Z" fill="#1C0E0C"/>
<path d="M339.268 141.094C339.268 141.094 335.963 136.27 319.182 147.266C308.811 154.065 316.06 167.909 309.067 175.345C301.499 183.394 291.921 188.107 299.684 204.057C307.599 220.32 287.415 214.324 291.78 232.43" stroke="#070707" stroke-width="1.27938" stroke-linecap="round" stroke-linejoin="round"/>
<path d="M352.655 164.552C352.655 164.552 352.131 175.509 356.385 181.131C359.278 184.949 356.679 184.628 366.769 185.719C366.769 185.719 367.822 199.786 344.461 199.786C327.125 199.786 334.066 191.541 334.066 191.541C334.066 191.541 341.303 181.686 338.183 164.552H352.655Z" fill="#C48270" stroke="#0F0F0F" stroke-width="1.27938" stroke-linecap="round" stroke-linejoin="round"/>
<path d="M352.884 163.701C352.884 163.701 353.332 185.719 334.6 185.719C334.221 185.717 333.847 185.636 333.506 185.48C334.491 184.835 340.641 180.081 337.606 163.416H352.884C352.884 163.416 352.884 163.512 352.884 163.693V163.701Z" fill="#1C0E0C"/>
<path d="M353.396 163.34C353.396 163.34 350.713 182.163 337.994 182.253C329.629 182.311 324.797 171.287 322.838 165.507C320.601 158.907 322.972 145.715 334.904 145.882C345.267 146.028 350.683 159.31 350.683 159.31L353.396 163.34Z" fill="#C48270" stroke="#0F0F0F" stroke-width="1.27938" stroke-linecap="round" stroke-linejoin="round"/>
<path d="M350.949 162.386C350.949 162.386 350.442 160.757 350.911 159.286C351.209 158.354 351.902 157.482 353.365 157.137" stroke="#070707" stroke-width="1.27938" stroke-linecap="round" stroke-linejoin="round"/>
<path d="M353.365 160.356L350.911 159.286" stroke="#070707" stroke-width="1.27938" stroke-linecap="round" stroke-linejoin="round"/>
<path d="M372.364 191.398C372.364 191.398 365.033 209.26 376.759 218.856C380.539 221.948 386.119 219.122 386.119 219.122" fill="#C48270"/>
<path d="M372.364 191.398C372.364 191.398 365.033 209.26 376.759 218.856C380.539 221.948 386.119 219.122 386.119 219.122" stroke="#0F0F0F" stroke-width="1.27938" stroke-linecap="round" stroke-linejoin="round"/>
<path d="M377.865 209.516C382.044 221.954 387.586 239.537 387.586 239.537C365.602 240.659 332.458 253.191 328.421 254.744C321.721 256.147 312.235 261.246 310.412 262.27C308.706 263.182 306.023 265.709 305.213 266.723C304.36 267.781 302.375 271.591 302.375 271.591C302.798 271.788 303.278 271.845 303.74 271.754C304.202 271.663 304.618 271.43 304.921 271.09C305.704 270.289 307.017 268.357 308.07 267.417C307.115 269.671 306.222 272 306.222 272C306.222 272 308.591 272.545 311.627 271.623C313.081 271.183 314.689 268.561 316.391 266.836C318.092 265.11 321.805 265.926 325.521 265.334C329.238 264.743 331.818 259.62 331.818 259.62L331.767 259.536C341.415 259.687 392.16 259.997 403.214 250.289C409.824 244.491 401.256 206.73 390.354 189.994C385.558 182.634 378.413 183.622 375.063 188.308C373.944 189.869 372.607 190.781 372.551 192.992" fill="#C48270"/>
<path d="M377.865 209.516C382.044 221.954 387.586 239.537 387.586 239.537C365.602 240.659 332.458 253.191 328.421 254.744C321.721 256.147 312.235 261.246 310.412 262.27C308.706 263.182 306.023 265.709 305.213 266.723C304.36 267.781 302.375 271.591 302.375 271.591C302.798 271.788 303.278 271.845 303.74 271.754C304.202 271.663 304.618 271.43 304.921 271.09C305.704 270.289 307.017 268.357 308.07 267.417C307.115 269.671 306.222 272 306.222 272C306.222 272 308.591 272.545 311.627 271.623C313.081 271.183 314.689 268.561 316.391 266.836C318.092 265.11 321.805 265.926 325.521 265.334C329.238 264.743 331.818 259.62 331.818 259.62L331.767 259.536C341.415 259.687 392.16 259.997 403.214 250.289C409.824 244.491 401.256 206.73 390.354 189.994C385.558 182.634 378.413 183.622 375.063 188.308C373.944 189.869 372.607 190.781 372.551 192.992" stroke="#0F0F0F" stroke-width="1.27938" stroke-linecap="round" stroke-linejoin="round"/>
<path d="M308.117 272.151C308.076 272.157 308.033 272.152 307.994 272.137C307.966 272.127 307.94 272.112 307.919 272.093C307.897 272.073 307.881 272.05 307.869 272.024C307.858 271.998 307.853 271.97 307.854 271.943C307.854 271.915 307.862 271.887 307.874 271.862C308.16 271.225 310.697 265.619 311.815 264.859C313.753 263.541 316.278 261.811 316.278 261.811L316.542 262.152C316.542 262.152 314.015 263.883 312.079 265.2C311.226 265.785 309.049 270.325 308.288 272.014C308.274 272.049 308.252 272.08 308.222 272.103C308.192 272.127 308.156 272.144 308.117 272.151Z" stroke="#070707" stroke-width="1.27938" stroke-linecap="round" stroke-linejoin="round"/>
<path d="M310.531 271.766C310.491 271.772 310.45 271.767 310.412 271.753C310.374 271.739 310.342 271.715 310.317 271.685C310.292 271.654 310.277 271.618 310.272 271.58C310.267 271.542 310.274 271.504 310.29 271.469C310.393 271.269 312.819 266.312 313.953 265.541C315.892 264.224 318.416 262.494 318.416 262.494L318.681 262.835C318.681 262.835 316.154 264.565 314.218 265.883C313.365 266.469 311.384 270.241 310.697 271.645C310.682 271.677 310.659 271.704 310.63 271.725C310.601 271.746 310.567 271.76 310.531 271.766Z" stroke="#070707" stroke-width="1.27938" stroke-linecap="round" stroke-linejoin="round"/>
<path d="M349.886 167.749C349.886 167.749 349.841 191.974 363.801 193.723C377.761 195.473 388.815 186.765 388.815 186.765" fill="#1C0E0C"/>
<path d="M332.62 163.663L331.865 169.519L334.501 170.964" stroke="#070707" stroke-width="1.27938" stroke-linecap="round" stroke-linejoin="round"/>
<path d="M338.119 163.798C338.677 163.614 338.92 162.903 338.661 162.211C338.403 161.518 337.741 161.106 337.183 161.29C336.625 161.474 336.382 162.185 336.641 162.877C336.9 163.57 337.561 163.982 338.119 163.798Z" fill="#1C0E0C"/>
<path d="M328.685 166.066C329.242 165.882 329.485 165.171 329.227 164.479C328.968 163.786 328.306 163.374 327.748 163.558C327.19 163.742 326.948 164.453 327.206 165.145C327.465 165.838 328.127 166.25 328.685 166.066Z" fill="#1C0E0C"/>
<path d="M334.287 158.512C334.287 158.512 336.129 156.446 340.1 158.245" stroke="#070707" stroke-width="1.27938" stroke-linecap="round" stroke-linejoin="round"/>
<path d="M324.55 161.402C324.55 161.402 325.588 158.885 329.418 159.955" stroke="#070707" stroke-width="1.27938" stroke-linecap="round" stroke-linejoin="round"/>
<path d="M330.314 144.94C330.314 144.94 336.483 142.535 338.541 148.273C340.599 154.011 343.951 158.803 350.712 155.47C357.474 152.137 354.706 147.806 354.706 147.806" fill="#1C0E0C"/>
<path d="M351.596 163.424C354.027 163.424 355.999 161.571 355.999 159.286C355.999 157 354.027 155.147 351.596 155.147C349.164 155.147 347.192 157 347.192 159.286C347.192 161.571 349.164 163.424 351.596 163.424Z" fill="#C48270"/>
<path d="M349.924 161.811C349.924 161.811 349.414 160.182 349.885 158.71C350.182 157.779 350.875 156.907 352.338 156.562" stroke="#070707" stroke-width="1.27938" stroke-linecap="round" stroke-linejoin="round"/>
<path d="M352.338 159.781L349.886 158.71" stroke="#070707" stroke-width="1.27938" stroke-linecap="round" stroke-linejoin="round"/>
<path d="M349.657 154.886C348.401 144.098 336.978 137.923 336.863 137.883L342.365 138.236C343.03 138.448 349.365 139.274 355.276 153.582L349.657 154.886Z" fill="#EFAF00" stroke="black" stroke-width="1.27938" stroke-linecap="round" stroke-linejoin="round"/>
<path d="M354.043 169.496C356.939 169.133 358.774 165.232 358.143 160.783C357.511 156.334 354.652 153.022 351.755 153.385C348.859 153.748 347.024 157.649 347.655 162.098C348.287 166.547 351.147 169.859 354.043 169.496Z" fill="#EFAF00" stroke="black" stroke-width="1.27938" stroke-linecap="round" stroke-linejoin="round"/>
<path d="M355.872 169.269C358.768 168.905 360.603 165.004 359.972 160.555C359.34 156.107 356.481 152.794 353.585 153.158C350.689 153.521 348.853 157.422 349.484 161.871C350.116 166.32 352.976 169.632 355.872 169.269Z" fill="#EFAF00" stroke="black" stroke-width="1.27938" stroke-linecap="round" stroke-linejoin="round"/>
<path d="M334.501 173.932C334.501 173.932 338.612 174.598 340.454 170.778" stroke="#070707" stroke-width="1.27938" stroke-linecap="round" stroke-linejoin="round"/>
</g>
</g>
<defs>
<filter id="filter0_i_49_609" x="0" y="0" width="658.217" height="498.301" filterUnits="userSpaceOnUse" color-interpolation-filters="sRGB">
<feFlood flood-opacity="0" result="BackgroundImageFix"/>
<feBlend mode="normal" in="SourceGraphic" in2="BackgroundImageFix" result="shape"/>
<feColorMatrix in="SourceAlpha" type="matrix" values="0 0 0 0 0 0 0 0 0 0 0 0 0 0 0 0 0 0 127 0" result="hardAlpha"/>
<feOffset dy="7.0681"/>
<feGaussianBlur stdDeviation="2.65054"/>
<feComposite in2="hardAlpha" operator="arithmetic" k2="-1" k3="1"/>
<feColorMatrix type="matrix" values="0 0 0 0 0 0 0 0 0 0 0 0 0 0 0 0 0 0 0.25 0"/>
<feBlend mode="normal" in2="shape" result="effect1_innerShadow_49_609"/>
</filter>
<clipPath id="clip0_49_609">
<rect width="658.217" height="493" rx="8.83513" fill="white"/>
</clipPath>
</defs>
</svg>
